<?xml version="1.0" standalone="no"?>
<!DOCTYPE svg PUBLIC "-//W3C//DTD SVG 20010904//EN"
 "http://www.w3.org/TR/2001/REC-SVG-20010904/DTD/svg10.dtd">
<svg version="1.0" xmlns="http://www.w3.org/2000/svg"
 width="1437.000000pt" height="1437.000000pt" viewBox="0 0 1437.000000 1437.000000"
 preserveAspectRatio="xMidYMid meet">
<metadata>
Created by potrace 1.14, written by Peter Selinger 2001-2017
</metadata>
<g transform="translate(0.000000,1437.000000) scale(0.100000,-0.100000)"
fill="#000000" stroke="none">
<path d="M9248 14358 c9 -9 15 -9 24 0 9 9 7 12 -12 12 -19 0 -21 -3 -12 -12z"/>
<path d="M9898 14363 c7 -3 16 -2 19 1 4 3 -2 6 -13 5 -11 0 -14 -3 -6 -6z"/>
<path d="M10850 14360 c0 -5 5 -10 10 -10 6 0 10 5 10 10 0 6 -4 10 -10 10 -5
0 -10 -4 -10 -10z"/>
<path d="M10887 14347 c-10 -12 -16 -29 -14 -39 6 -21 -47 -80 -66 -72 -11 4
-13 -1 -10 -20 4 -19 -1 -32 -18 -47 l-24 -21 23 5 c12 3 22 1 22 -4 0 -5 8
-8 18 -6 18 2 22 -3 22 -28 0 -17 -45 -21 -55 -5 -10 16 -23 12 -35 -10 -13
-24 -4 -60 15 -60 7 0 15 -7 19 -15 3 -8 10 -14 17 -13 6 2 20 -9 32 -25 19
-25 20 -28 5 -43 -20 -20 -50 -12 -42 11 7 17 -7 20 -22 5 -14 -14 -70 -16
-86 -3 -7 5 -26 13 -43 17 -21 5 -26 4 -16 -3 12 -8 9 -11 -12 -16 -32 -8 -33
-12 -10 -37 15 -17 15 -19 -3 -33 -12 -10 -33 -14 -61 -12 -32 3 -43 1 -43 -9
0 -8 9 -14 20 -14 24 0 26 -20 5 -61 -15 -29 -15 -31 10 -60 14 -18 25 -43 25
-60 0 -22 5 -29 20 -29 11 0 20 -4 20 -8 0 -5 15 -15 33 -24 20 -10 40 -31 52
-56 11 -23 30 -46 41 -53 12 -6 27 -22 33 -35 6 -13 15 -24 20 -24 6 0 8 -7 5
-15 -4 -9 -19 -15 -35 -15 -26 0 -29 -4 -29 -30 0 -16 4 -30 9 -30 27 0 45
-174 19 -183 -10 -3 -10 -10 2 -32 20 -37 14 -75 -15 -102 -28 -26 -75 -31
-75 -8 0 17 -18 52 -37 73 -16 17 -13 5 -19 87 -3 39 -10 74 -18 80 -7 6 -15
18 -19 28 -3 9 -16 17 -27 17 -15 0 -20 7 -20 24 0 14 -4 28 -10 31 -5 3 -10
20 -10 37 0 21 6 31 20 35 13 4 20 14 20 30 0 23 -3 25 -30 20 -21 -5 -30 -3
-30 7 0 7 -18 21 -40 31 -22 10 -40 24 -40 32 0 21 -22 15 -60 -17 -25 -21
-30 -30 -18 -30 9 0 20 5 23 10 11 18 26 10 20 -10 -4 -11 -2 -20 4 -20 6 0
11 -7 11 -15 0 -12 -7 -14 -27 -9 -24 6 -26 5 -19 -17 15 -48 18 -77 7 -83
-19 -12 -12 -36 14 -46 15 -6 25 -17 25 -30 0 -13 7 -20 20 -20 11 0 20 -3 20
-6 0 -13 -30 -34 -49 -34 -28 0 -27 -16 2 -35 20 -13 23 -22 21 -63 -1 -26 -6
-62 -9 -80 -7 -30 -5 -32 23 -38 17 -3 33 -13 37 -22 7 -18 8 -17 -29 -29 -62
-20 -62 -73 0 -73 27 0 37 -5 41 -19 2 -10 19 -24 36 -32 24 -11 33 -23 39
-52 5 -21 15 -48 23 -60 11 -15 12 -24 3 -34 -8 -11 -7 -12 6 -7 10 4 18 0 22
-10 3 -9 13 -16 21 -16 8 0 12 -3 9 -8 -7 -12 19 -40 47 -51 17 -7 27 -18 27
-30 0 -21 34 -46 49 -36 11 6 1 -38 -10 -45 -7 -5 -12 -59 -10 -112 1 -23 10
-31 61 -56 l60 -28 -20 -40 -21 -39 28 -23 c20 -16 36 -21 53 -17 30 7 53 6
115 -3 6 -1 23 -13 39 -27 16 -14 35 -25 42 -25 7 0 25 -16 39 -35 26 -33 30
-34 98 -37 45 -2 72 -7 75 -15 2 -7 -3 -13 -11 -13 -14 0 -47 -30 -47 -43 0
-4 11 -7 25 -7 22 0 25 -4 25 -40 0 -29 5 -42 20 -50 26 -14 68 -3 66 18 -1
10 8 18 22 20 26 4 29 27 5 36 -14 6 -14 9 6 22 21 15 24 15 42 -5 21 -23 42
-20 33 4 -8 20 46 41 58 23 4 -7 8 -17 8 -23 0 -5 7 3 15 18 11 22 12 39 6 70
-14 68 -9 128 13 141 14 8 20 8 23 -1 3 -7 13 -13 23 -13 10 0 20 -7 24 -15 4
-10 -1 -15 -14 -15 -11 0 -20 -4 -20 -10 0 -5 7 -10 15 -10 8 0 15 -5 15 -10
0 -6 13 -4 30 5 29 15 40 40 21 47 -5 2 -11 12 -13 23 -2 16 3 20 24 20 32 1
58 21 58 47 0 24 61 51 99 44 14 -3 37 -8 51 -10 14 -2 33 -7 43 -11 12 -5 17
-2 17 12 0 47 48 58 57 13 4 -21 13 -32 29 -36 26 -7 33 -24 10 -24 -24 0 -28
-18 -6 -30 14 -8 26 -8 40 0 25 13 60 4 60 -16 0 -8 7 -14 16 -14 20 0 43 -28
44 -52 0 -10 5 -18 12 -18 6 0 4 -6 -6 -13 -24 -18 -11 -50 18 -41 35 11 46
25 46 59 0 34 -22 61 -40 50 -5 -3 -10 -2 -10 4 0 5 -14 12 -31 16 -17 4 -33
13 -36 21 -8 20 5 30 19 16 18 -18 31 -15 65 16 41 37 48 64 23 87 -20 18 -21
18 -45 -5 -14 -13 -30 -20 -40 -16 -19 7 -15 42 3 38 7 -1 26 5 41 13 26 13
33 13 57 0 18 -9 33 -11 43 -5 31 18 51 37 51 48 0 20 77 37 106 24 36 -17 43
-15 56 13 6 14 23 27 40 30 16 4 34 15 41 26 6 10 19 19 28 19 9 0 20 7 23 16
9 23 8 24 -13 24 -30 0 -51 11 -51 26 0 17 -5 17 -31 3 -36 -19 -52 6 -45 73
4 32 9 65 12 73 12 29 -13 42 -76 39 -53 -2 -60 0 -60 16 0 23 -17 35 -23 18
-2 -7 -11 4 -20 25 -15 34 -19 37 -44 31 -15 -3 -32 -12 -38 -18 -5 -7 -18
-15 -28 -19 -10 -4 -26 -27 -37 -52 -11 -25 -26 -48 -35 -51 -8 -4 -15 -17
-15 -30 0 -38 -84 -86 -155 -90 -30 -1 -55 2 -55 7 0 5 -9 9 -19 9 -11 0 -23
9 -26 20 -3 11 -12 20 -19 20 -22 0 -66 -25 -66 -37 0 -21 -21 -26 -39 -9 -20
18 -41 21 -41 6 0 -5 -7 -7 -15 -4 -9 4 -15 0 -15 -8 0 -12 -14 -14 -75 -10
l-75 5 -2 -34 c0 -19 -1 -39 -1 -46 1 -33 -74 -18 -106 21 -8 10 -29 16 -54
16 -31 0 -48 7 -69 27 -23 22 -31 25 -50 15 -13 -6 -17 -11 -10 -11 20 -1 14
-17 -12 -29 -27 -12 -36 -7 -36 20 0 10 -4 18 -8 18 -14 0 -32 -23 -32 -42 0
-26 -19 -22 -30 7 -6 15 -17 25 -30 25 -11 0 -20 6 -20 13 -1 18 -57 77 -75
77 -9 0 -26 -7 -38 -15 -15 -9 -27 -11 -37 -5 -13 9 -13 11 0 20 10 6 11 10 3
10 -8 0 -13 14 -13 34 0 19 6 37 13 39 8 4 9 6 0 6 -6 1 -19 -6 -28 -15 -12
-13 -19 -14 -28 -5 -8 8 -7 11 5 11 8 0 21 6 27 14 10 12 8 17 -8 25 -15 8
-27 7 -49 -6 -29 -17 -31 -17 -51 1 -27 25 -26 32 6 53 19 13 28 14 31 5 6
-20 28 -13 40 13 11 23 16 25 47 19 30 -5 35 -4 35 14 0 11 7 25 15 32 22 19
43 66 35 80 -6 9 -9 9 -13 -1 -5 -11 -8 -10 -17 4 -6 9 -22 17 -35 17 -14 0
-25 5 -25 10 0 6 5 10 10 10 6 0 42 32 81 71 61 63 67 73 53 84 -32 23 -13
132 26 152 13 6 27 19 32 27 5 9 18 16 28 16 30 0 95 105 91 147 -2 26 1 33
16 33 10 0 27 6 38 14 11 7 38 19 60 26 22 7 34 15 27 17 -6 3 -9 9 -6 14 3 6
11 5 20 -2 8 -6 14 -8 14 -3 0 19 57 74 77 74 11 0 23 7 27 15 3 8 17 20 32
25 17 7 24 15 20 25 -4 11 1 15 17 15 12 0 38 14 57 30 55 48 58 50 75 50 8 0
15 7 15 16 0 8 -5 12 -11 8 -7 -4 -9 1 -7 12 2 11 11 18 21 16 9 -2 18 2 18 8
1 5 3 15 4 20 1 6 3 15 4 20 0 6 12 8 25 4 18 -4 28 0 38 15 7 12 24 21 38 21
27 1 71 55 83 102 4 14 16 28 27 31 11 3 24 17 30 31 13 34 50 50 67 29 11
-14 13 -14 18 3 17 54 44 90 83 109 23 11 42 23 42 27 0 5 -142 8 -315 8 -203
0 -315 -4 -315 -10 0 -5 5 -10 11 -10 6 0 24 -13 39 -30 15 -16 36 -30 47 -30
11 0 30 -19 48 -48 16 -26 35 -51 42 -55 22 -14 15 -37 -11 -37 -14 0 -28 5
-31 10 -3 6 -30 10 -59 10 -38 0 -58 -5 -74 -20 -14 -13 -35 -20 -62 -20 -25
0 -40 -5 -40 -12 0 -9 -2 -10 -8 -2 -8 14 -52 0 -52 -16 0 -5 -6 -10 -13 -10
-19 0 -38 -45 -25 -58 15 -15 -26 -34 -57 -26 -19 5 -26 13 -24 28 4 55 -4 66
-63 80 -24 5 -28 2 -38 -29 -10 -31 -16 -35 -46 -35 -20 0 -35 5 -36 13 0 6
-2 19 -2 27 -1 9 -11 15 -24 14 -12 0 -22 5 -22 13 0 7 5 13 12 13 9 0 9 3 0
12 -7 7 -12 25 -12 40 0 21 5 28 19 28 27 0 37 21 18 35 -21 15 -22 49 -1 69
20 21 32 20 73 -5 40 -24 59 -20 55 13 -1 12 -3 29 -3 36 -1 9 -46 12 -188 12
-183 0 -189 -1 -206 -23z m997 -53 c4 -10 1 -14 -6 -12 -15 5 -23 28 -10 28 5
0 13 -7 16 -16z m-1018 -222 c12 -8 25 -62 15 -62 -3 0 -18 11 -33 23 -21 18
-25 26 -16 35 14 14 19 14 34 4z m264 -114 c0 -5 11 -8 25 -8 31 0 33 -16 3
-24 -64 -17 -113 -2 -101 30 4 12 73 13 73 2z m392 -8 l22 -20 -25 0 c-27 0
-43 9 -46 28 -4 19 25 14 49 -8z m-867 -19 c3 -5 1 -12 -5 -16 -5 -3 -10 1
-10 9 0 18 6 21 15 7z m815 -11 c0 -5 -7 -10 -16 -10 -8 0 -12 5 -9 10 3 6 10
10 16 10 5 0 9 -4 9 -10z m-155 -40 c3 -5 15 -10 26 -10 16 0 19 -7 19 -44 0
-54 -26 -70 -59 -37 -12 12 -25 21 -31 21 -14 0 -13 20 3 53 12 27 31 35 42
17z m-611 -183 c17 -13 16 -15 -16 -35 -20 -12 -48 -22 -62 -22 -23 0 -27 4
-24 23 2 15 10 22 25 22 13 0 28 6 35 13 15 15 20 15 42 -1z m419 -301 c-5
-23 -30 -43 -40 -32 -10 9 9 45 25 49 9 3 18 5 18 6 1 0 -1 -10 -3 -23z m-696
8 c-3 -3 -12 -4 -19 -1 -8 3 -5 6 6 6 11 1 17 -2 13 -5z m-27 -28 c0 -21 -23
-36 -40 -26 -11 7 -11 11 -1 24 16 20 41 21 41 2z m210 -416 c0 -5 -4 -10 -10
-10 -5 0 -10 5 -10 10 0 6 5 10 10 10 6 0 10 -4 10 -10z m168 -75 c-8 -46 -7
-60 7 -81 14 -22 15 -28 4 -35 -19 -12 -37 -11 -44 2 -4 6 -14 8 -22 5 -20 -8
-8 49 19 88 l20 28 -21 -7 c-33 -10 -28 31 7 48 15 7 30 12 33 11 3 -2 2 -28
-3 -59z m-238 41 c0 -11 -19 -15 -25 -6 -3 5 1 10 9 10 9 0 16 -2 16 -4z m133
-3 c-7 -2 -19 -2 -25 0 -7 3 -2 5 12 5 14 0 19 -2 13 -5z m-68 -53 c23 0 31
-29 11 -42 -21 -14 -86 -9 -92 7 -4 8 -15 15 -26 15 -11 0 -16 4 -13 11 4 6
14 8 22 5 8 -3 24 1 36 9 14 10 25 11 31 5 6 -6 20 -10 31 -10z m1702 -105 c9
-25 -4 -29 -17 -6 -7 15 -7 21 0 21 6 0 13 -7 17 -15z m-54 -42 c-7 -2 -19 -2
-25 0 -7 3 -2 5 12 5 14 0 19 -2 13 -5z m-1287 -84 c3 -6 1 -15 -5 -20 -6 -5
-9 -6 -6 -2 3 4 -7 12 -22 19 l-28 12 27 1 c15 1 30 -4 34 -10z m954 1 c0 -5
-7 -10 -15 -10 -8 0 -15 5 -15 10 0 6 7 10 15 10 8 0 15 -4 15 -10z m530 -52
c0 -23 -14 -30 -43 -19 -27 10 -40 44 -24 60 14 14 67 -18 67 -41z m-1404 27
c17 -16 14 -18 -10 -9 -9 3 -16 10 -16 15 0 13 9 11 26 -6z m874 -33 c0 -4
-18 -6 -40 -4 -22 2 -40 6 -40 8 0 2 18 4 40 4 22 0 40 -3 40 -8z m-960 -28
c0 -8 -7 -14 -15 -14 -15 0 -21 21 -9 33 10 9 24 -2 24 -19z m169 13 c6 -8 8
-17 5 -20 -9 -8 -54 14 -48 24 8 13 30 11 43 -4z m-234 -168 c4 -6 4 -13 0
-17 -3 -3 -9 -1 -13 5 -4 6 -21 13 -37 16 -28 4 -27 4 7 6 20 0 40 -4 43 -10z
m-15 -119 c0 -5 -2 -10 -4 -10 -3 0 -8 5 -11 10 -3 6 -1 10 4 10 6 0 11 -4 11
-10z m173 -65 c-6 -17 -25 -15 -31 3 -2 7 5 12 17 12 14 0 19 -5 14 -15z m407
-64 c0 -6 -4 -13 -10 -16 -5 -3 -10 1 -10 9 0 9 5 16 10 16 6 0 10 -4 10 -9z
m-139 -152 c25 -13 16 -29 -17 -29 -17 0 -24 5 -24 20 0 22 12 25 41 9z"/>
<path d="M11420 14357 c0 -9 10 -12 30 -9 44 6 47 22 6 22 -23 0 -36 -5 -36
-13z"/>
<path d="M12282 14348 c3 -20 8 -23 38 -20 19 2 40 9 45 16 8 11 13 11 23 0
18 -19 29 -17 42 6 10 19 8 20 -44 20 -34 0 -56 -5 -59 -12 -4 -10 -6 -10 -6
0 -1 6 -10 12 -22 12 -15 0 -20 -5 -17 -22z"/>
<path d="M13850 14342 c0 -33 -16 -52 -43 -52 -28 0 -97 -41 -97 -57 0 -8 5
-23 11 -34 15 -28 -13 -48 -67 -49 -50 0 -84 -34 -84 -84 0 -18 -7 -39 -15
-46 -17 -14 -11 -32 9 -24 10 4 13 -5 12 -36 0 -22 4 -44 10 -48 6 -4 19 -24
28 -44 16 -32 21 -36 45 -32 26 5 48 -8 79 -48 11 -14 9 -20 -14 -42 -27 -25
-28 -25 -9 -46 10 -11 25 -18 32 -16 7 3 13 -1 13 -10 0 -8 11 -19 24 -24 13
-4 26 -20 30 -34 5 -22 12 -26 42 -26 53 0 115 -45 142 -103 19 -43 15 -56
-22 -78 -30 -17 -35 -26 -40 -72 -10 -88 -10 -91 -2 -116 7 -20 6 -23 -9 -17
-14 5 -17 2 -13 -19 4 -18 -1 -29 -19 -40 -17 -12 -22 -21 -17 -39 7 -29 -9
-41 -26 -21 -11 13 -10 14 4 9 9 -3 16 -2 16 4 0 18 -26 20 -58 5 -18 -9 -32
-22 -32 -30 0 -12 3 -13 14 -4 16 14 26 -4 26 -49 0 -15 7 -33 15 -40 8 -7 15
-16 15 -21 0 -5 -7 -9 -15 -9 -27 0 -16 -35 15 -47 21 -8 28 -16 24 -27 -4 -9
-11 -15 -18 -14 -6 1 -26 -2 -43 -6 -33 -8 -42 -19 -23 -31 13 -8 1 -35 -15
-35 -7 0 -16 -6 -18 -12 -4 -10 -8 -10 -15 1 -16 22 -45 -30 -36 -65 6 -23 4
-26 -10 -21 -10 4 -19 1 -22 -8 -4 -8 -12 -15 -20 -15 -27 0 -64 -24 -64 -41
0 -10 7 -25 17 -34 15 -16 17 -15 28 4 18 34 26 12 10 -26 -8 -19 -12 -39 -10
-44 3 -4 -3 -17 -14 -28 -12 -12 -18 -27 -15 -36 4 -10 0 -15 -14 -15 -12 0
-24 -4 -27 -10 -3 -5 -15 -10 -26 -10 -10 0 -19 -5 -19 -11 0 -7 7 -8 18 -4 9
4 29 10 45 13 15 2 27 8 27 13 0 5 7 9 15 9 9 0 12 6 9 15 -4 10 0 15 11 15
14 0 16 6 11 35 -6 30 -4 35 13 35 11 0 30 -4 43 -9 19 -7 28 -4 45 15 11 12
18 26 15 29 -10 9 59 5 79 -5 25 -14 24 -31 -3 -54 l-22 -19 34 -11 c41 -14
49 -33 18 -45 -33 -14 -62 -42 -78 -76 -17 -35 -87 -108 -113 -118 -9 -4 -22
-18 -27 -32 -14 -36 -40 -33 -40 5 0 17 4 30 10 30 5 0 0 16 -12 36 -18 31
-25 35 -49 30 -17 -3 -32 0 -39 9 -14 17 -20 18 -39 6 -11 -7 -10 -13 3 -32 8
-13 12 -29 8 -35 -10 -16 -50 -27 -64 -17 -7 4 -33 9 -58 11 -24 1 -49 7 -54
12 -6 6 -31 10 -56 10 -34 0 -48 -5 -57 -19 -10 -16 -23 -20 -75 -19 -35 0
-68 5 -75 10 -16 13 -33 1 -33 -23 0 -11 -5 -29 -10 -40 -7 -12 -7 -19 -1 -19
6 0 22 -16 37 -35 32 -42 23 -60 -37 -70 l-39 -7 0 -49 c0 -34 -5 -51 -15 -55
-8 -3 -17 -16 -21 -27 -4 -12 -19 -41 -35 -65 -16 -24 -29 -45 -29 -48 0 -2
12 -4 28 -4 25 -1 62 -20 62 -32 0 -3 -9 -8 -20 -11 -14 -4 -18 -10 -14 -22 4
-9 2 -20 -4 -24 -8 -5 -8 -16 -1 -41 22 -73 -34 -127 -59 -57 -7 18 -12 50
-12 71 0 45 -23 58 -51 28 -10 -12 -37 -27 -59 -33 -37 -11 -42 -10 -65 11
-33 31 -32 67 6 123 25 38 36 47 60 47 38 0 38 25 0 44 -20 11 -31 12 -39 4
-20 -20 -34 3 -28 44 l6 40 -37 -4 c-30 -2 -38 1 -41 15 -2 12 3 20 16 24 11
2 25 16 31 29 6 13 19 24 30 24 24 0 73 47 94 92 28 56 70 95 116 108 38 10
45 9 58 -7 8 -10 12 -13 9 -6 -9 17 13 28 54 28 l35 0 -1 53 c-1 33 -8 60 -18
71 -27 30 -19 47 20 42 14 -2 29 17 38 45 4 13 -1 28 -15 43 -23 25 -56 24
-51 -1 3 -19 -26 -32 -42 -19 -18 15 -54 2 -62 -21 -4 -15 -9 -17 -17 -9 -24
24 -34 12 -27 -30 7 -37 6 -40 -14 -38 -11 0 -27 1 -34 0 -16 -1 -122 -107
-122 -121 0 -6 -6 -10 -14 -10 -8 0 -23 -11 -34 -25 -11 -14 -24 -25 -29 -25
-5 0 -21 -12 -36 -27 -14 -16 -43 -42 -64 -59 -21 -18 -60 -50 -86 -73 -27
-22 -58 -41 -70 -41 -25 -1 -57 -22 -57 -38 0 -19 -21 -25 -33 -9 -17 20 -57
29 -57 12 0 -7 -5 -15 -12 -17 -7 -3 -6 -12 6 -31 15 -22 16 -32 7 -60 -7 -19
-23 -40 -36 -47 -14 -7 -25 -17 -25 -22 0 -4 -7 -8 -15 -8 -8 0 -22 -12 -32
-26 -9 -14 -27 -30 -41 -35 -13 -5 -26 -18 -29 -29 -4 -14 -14 -20 -34 -20
-22 0 -32 -6 -39 -25 -5 -14 -14 -25 -20 -25 -7 0 -8 -6 0 -19 13 -25 1 -33
-48 -33 -39 0 -66 -14 -56 -29 3 -5 -6 -13 -19 -18 -14 -6 -26 -13 -28 -18 -5
-11 -86 -63 -99 -63 -5 0 -10 -7 -10 -15 0 -18 -21 -20 -37 -4 -8 8 -17 8 -31
0 -30 -16 -33 -14 -31 22 2 17 2 44 1 60 -2 25 -5 27 -39 24 -38 -3 -40 -7
-28 -39 4 -11 0 -20 -14 -28 -23 -12 -28 -36 -8 -43 6 -3 2 -6 -10 -6 -16 -1
-23 5 -23 18 0 11 -4 23 -10 26 -5 3 -10 14 -10 24 0 9 -8 26 -18 37 -10 11
-17 25 -15 31 3 7 -11 15 -31 19 -20 3 -36 10 -36 15 0 5 -15 9 -32 9 -32 0
-32 0 -10 -16 30 -21 28 -57 -3 -74 -28 -15 -33 -41 -10 -60 8 -6 14 -15 13
-18 -3 -23 5 -24 22 -2 15 20 21 23 31 13 7 -7 21 -13 30 -13 23 0 33 -34 19
-60 -16 -30 -5 -53 20 -45 15 5 20 2 20 -12 0 -11 6 -25 13 -32 10 -11 6 -12
-18 -7 -38 8 -87 -5 -77 -20 4 -7 25 -13 47 -14 71 -5 85 -1 85 20 0 11 5 20
11 20 6 0 8 -9 4 -21 -5 -14 -1 -25 10 -33 15 -11 15 -14 3 -27 -8 -8 -13 -20
-10 -27 5 -15 -24 -16 -34 -1 -3 6 0 15 7 20 8 5 9 9 3 9 -17 0 -64 -78 -51
-84 7 -3 0 -3 -16 1 -22 4 -26 2 -21 -11 4 -10 12 -15 19 -12 7 2 28 -11 46
-30 31 -32 69 -46 69 -24 0 6 6 10 13 10 8 0 20 11 27 25 12 23 19 25 82 25
62 0 68 2 68 21 0 12 -8 23 -20 26 -11 3 -20 11 -20 19 0 7 -9 19 -21 28 -15
10 -19 20 -14 36 5 15 2 26 -6 32 -10 7 -8 8 9 5 16 -4 26 1 34 16 6 12 20 28
30 35 11 8 18 23 16 35 -2 17 2 21 18 19 11 -1 29 6 38 17 10 11 22 19 26 16
17 -10 141 -15 159 -6 14 8 20 8 23 -1 3 -9 11 -9 29 3 13 9 41 19 62 23 32 6
37 4 37 -12 0 -29 19 -42 46 -32 15 6 24 6 24 0 0 -6 7 -10 16 -10 9 0 22 -8
29 -17 11 -15 17 -16 52 -4 31 10 45 11 62 2 27 -15 27 -47 0 -54 -12 -3 -18
-10 -14 -17 4 -6 15 -8 26 -5 11 4 19 2 19 -4 0 -14 67 -14 75 -1 4 6 11 7 17
4 6 -4 13 -3 17 2 12 18 60 44 80 44 11 0 23 5 27 11 3 6 20 9 37 6 32 -4 57
11 57 35 1 18 21 43 43 51 18 7 24 47 7 47 -5 0 -10 5 -10 10 0 6 11 10 25 10
14 0 34 9 45 20 21 21 56 27 62 9 2 -5 12 -12 23 -14 11 -2 22 -4 25 -5 3 -1
8 -2 13 -1 4 0 7 -4 7 -10 0 -5 5 -7 10 -4 6 3 10 -1 10 -9 0 -9 5 -16 10 -16
6 0 22 -12 35 -26 19 -20 23 -33 18 -57 -6 -30 -5 -30 28 -25 19 3 40 3 47 1
21 -8 13 -33 -10 -33 -13 0 -33 -8 -46 -18 l-23 -18 21 -48 c17 -42 23 -47 43
-42 13 3 44 25 69 50 33 32 57 46 87 51 22 4 43 11 47 16 9 15 45 10 80 -12
19 -11 38 -18 43 -15 11 7 33 -18 24 -27 -3 -4 6 -16 20 -28 15 -11 27 -26 27
-34 0 -19 -28 -38 -58 -40 -29 -2 -56 -11 -84 -26 -26 -13 -38 -11 -38 7 0 9
-5 12 -11 8 -7 -4 -9 -24 -5 -58 4 -28 7 -59 7 -68 0 -21 25 -24 36 -4 7 12
10 12 21 0 7 -7 13 -17 14 -21 6 -34 11 -40 33 -35 43 8 50 28 17 48 -56 32
-7 82 61 63 50 -14 61 -60 17 -74 -10 -3 -21 -12 -24 -20 -4 -12 5 -15 49 -15
42 0 55 3 55 15 0 12 13 15 60 15 33 0 69 6 80 12 15 10 22 10 32 0 6 -6 22
-12 35 -12 16 0 21 -4 17 -15 -4 -8 -1 -15 6 -15 6 0 8 -5 4 -12 -4 -7 -3 -8
4 -4 6 4 17 -2 24 -14 7 -11 21 -20 31 -20 28 0 59 20 53 35 -3 8 4 15 17 19
16 4 29 -2 50 -26 23 -26 30 -29 37 -18 15 23 12 30 -10 30 -37 0 -20 17 22
23 24 3 44 11 46 16 2 6 11 11 21 11 9 0 23 6 30 13 10 10 15 9 25 -5 18 -24
25 -23 36 8 9 23 15 26 41 20 22 -4 39 0 59 14 16 11 35 19 42 18 10 -2 14 28
16 138 l3 140 -44 22 c-61 30 -99 29 -114 -4 -6 -14 -9 -33 -6 -41 5 -12 3
-14 -7 -8 -10 6 -12 4 -7 -8 5 -14 0 -17 -32 -17 -26 0 -41 5 -45 16 -10 27
-7 44 9 44 20 0 35 40 35 96 0 32 -4 44 -15 44 -8 0 -15 6 -15 13 -1 7 -6 5
-14 -6 -10 -13 -16 -15 -21 -7 -4 7 -16 10 -26 7 -11 -3 -19 -1 -19 4 0 5 -6
9 -14 9 -8 0 -13 -8 -12 -17 1 -12 -7 -19 -24 -21 -14 -2 -33 -11 -42 -19 -20
-18 -38 -10 -38 17 0 27 -20 36 -27 12 -3 -12 -11 -18 -18 -16 -7 3 -16 1 -20
-5 -3 -6 -19 -11 -36 -11 -19 0 -29 -5 -29 -14 0 -13 5 -13 36 0 33 14 35 13
32 -3 -2 -12 4 -19 19 -21 12 -2 27 -9 33 -17 9 -10 7 -15 -9 -20 -21 -6 -22
-28 -3 -47 21 -21 13 -38 -17 -38 -44 0 -92 -31 -85 -54 5 -16 3 -18 -22 -12
-33 8 -153 66 -170 81 -19 18 -30 87 -20 126 5 20 7 42 4 50 -3 8 -32 20 -64
27 -33 7 -68 19 -78 27 -19 15 -19 15 2 35 23 22 31 46 11 34 -10 -6 -20 -8
-66 -13 -7 0 -13 -10 -13 -21 0 -11 -6 -20 -13 -20 -7 0 -18 -5 -25 -12 -7 -7
-30 -11 -51 -9 -36 2 -38 1 -34 -22 4 -22 1 -25 -30 -29 -27 -3 -38 1 -48 17
-7 11 -12 26 -11 33 3 14 -14 16 -23 2 -11 -18 -36 -10 -81 27 -44 37 -52 58
-35 91 5 9 16 32 23 50 7 17 17 30 23 28 18 -6 44 14 39 29 -4 10 0 15 14 15
12 0 25 7 30 16 5 8 27 18 50 21 23 3 49 14 58 24 15 17 15 21 2 37 -18 22
-15 62 6 77 19 14 21 25 5 25 -6 0 -20 11 -30 24 -10 13 -30 27 -44 30 -21 5
-25 12 -25 41 0 38 28 75 57 75 9 0 31 5 49 12 28 10 35 9 60 -11 19 -15 36
-20 51 -16 16 4 23 1 23 -10 0 -8 -6 -15 -12 -15 -9 0 -10 -3 -2 -8 6 -4 14
-19 18 -34 6 -28 8 -28 85 -28 64 0 81 -3 95 -19 13 -14 16 -26 10 -43 -21
-65 -27 -128 -14 -153 10 -20 8 -28 -23 -71 -20 -28 -37 -64 -39 -84 -2 -25
-8 -35 -20 -35 -26 0 -35 -15 -15 -26 9 -6 17 -20 17 -32 0 -13 9 -30 20 -40
11 -9 20 -13 20 -8 0 5 9 11 20 14 14 3 20 14 20 31 0 16 6 26 14 26 8 0 16 5
18 12 5 13 -10 84 -22 108 -8 17 12 54 23 43 4 -3 7 -1 7 5 0 7 -4 12 -10 12
-5 0 -10 7 -10 16 0 8 4 13 9 10 10 -6 17 20 31 103 5 30 18 66 29 80 12 14
27 41 36 59 9 21 25 37 45 43 21 8 30 17 30 33 0 35 36 101 69 127 17 13 31
29 31 35 0 7 7 14 15 18 9 3 25 22 37 42 19 32 25 36 54 31 26 -4 33 -2 37 14
5 20 32 25 56 10 19 -12 6 -41 -18 -41 -14 0 -21 -9 -25 -35 -5 -24 -11 -33
-21 -28 -19 7 -19 -6 1 -45 20 -42 52 -64 74 -52 11 6 21 5 27 -1 17 -17 57
-6 69 19 6 13 29 32 50 44 22 11 41 24 44 28 3 4 20 11 38 15 l34 7 -4 141
c-3 123 -6 146 -23 169 -27 36 -82 50 -125 32 -29 -13 -38 -12 -71 3 -22 9
-39 20 -39 25 0 4 -29 5 -65 1 -55 -5 -65 -4 -65 10 0 9 -13 24 -30 34 -20 11
-28 23 -25 33 3 9 -4 27 -15 40 -13 15 -17 27 -11 33 16 16 41 -1 41 -28 0
-23 2 -24 20 -15 11 6 20 18 20 27 0 29 33 42 101 43 63 0 69 2 103 36 20 20
36 42 36 50 0 10 7 13 25 8 20 -5 27 -1 37 20 9 22 17 26 42 24 25 -2 31 -8
30 -25 0 -16 3 -20 11 -13 8 7 13 69 14 199 l2 189 -33 25 -32 26 27 10 c25
10 28 15 25 53 l-3 42 -43 1 c-29 1 -46 -3 -49 -12 -3 -7 -15 -13 -28 -13 -31
0 -39 43 -13 67 24 21 93 21 117 -2 10 -8 21 -12 24 -9 4 4 7 182 7 395 l0
389 -151 0 c-146 0 -151 -1 -146 -20 4 -15 0 -20 -15 -20 -11 0 -22 8 -25 20
-5 18 -14 20 -94 20 l-89 0 0 -28z m418 -14 c-6 -18 -28 -21 -28 -4 0 9 7 16
16 16 9 0 14 -5 12 -12z m69 -400 c5 -7 7 -24 3 -38 -4 -18 -13 -25 -30 -25
-31 0 -39 35 -15 59 20 19 29 20 42 4z m-167 -264 c0 -8 -4 -14 -10 -14 -5 0
-10 9 -10 21 0 11 5 17 10 14 6 -3 10 -13 10 -21z m-250 -626 c0 -4 -7 -5 -15
-2 -11 5 -13 2 -9 -10 4 -11 1 -16 -10 -16 -16 0 -20 17 -10 44 5 12 9 13 25
3 10 -6 19 -15 19 -19z m-6 -54 c16 -16 21 -34 9 -34 -10 0 -43 32 -43 42 0
13 17 9 34 -8z m-29 -253 c3 -5 1 -12 -5 -16 -5 -3 -10 1 -10 9 0 18 6 21 15
7z m455 -101 c0 -16 -47 -43 -61 -34 -12 7 -11 41 1 65 10 19 12 19 35 2 13
-10 24 -25 25 -33z m-634 13 c-10 -10 -19 5 -10 18 6 11 8 11 12 0 2 -7 1 -15
-2 -18z m478 -79 c23 -22 20 -34 -8 -34 -24 0 -41 23 -30 41 8 13 21 11 38 -7z
m-14 -278 c0 -3 -4 -8 -10 -11 -5 -3 -10 -1 -10 4 0 6 5 11 10 11 6 0 10 -2
10 -4z m-1584 -538 c54 -18 64 -25 64 -45 0 -13 -4 -23 -10 -23 -5 0 -12 -11
-16 -25 -4 -18 -15 -28 -35 -32 -16 -3 -29 -9 -29 -14 0 -20 -31 -7 -40 16 -7
18 -17 25 -35 25 -14 0 -25 -4 -25 -10 0 -5 5 -10 10 -10 6 0 10 -4 10 -10 0
-5 -11 -10 -24 -10 -20 0 -24 -6 -30 -40 -3 -21 -15 -48 -27 -59 -20 -18 -22
-18 -50 -3 -34 20 -34 22 -10 82 17 41 22 45 57 50 32 4 38 8 36 25 -18 103
26 127 154 83z m-396 -127 c14 -28 14 -29 -25 -29 -38 0 -48 20 -17 37 24 15
30 14 42 -8z m567 -43 c-3 -8 -6 -5 -6 6 -1 11 2 17 5 13 3 -3 4 -12 1 -19z
m-519 -46 c17 -12 7 -35 -22 -48 -37 -17 -49 -2 -24 29 24 29 27 31 46 19z
m965 -39 c10 -13 29 -23 43 -23 14 0 24 -6 24 -14 0 -8 9 -18 20 -21 11 -3 20
-15 20 -26 0 -24 -40 -26 -75 -3 -24 16 -65 12 -65 -7 0 -5 -4 -9 -9 -9 -5 0
-12 18 -16 40 -4 22 -10 42 -15 45 -4 2 -5 16 -3 30 5 21 9 24 32 18 14 -3 34
-17 44 -30z m-476 5 c-3 -8 -6 -5 -6 6 -1 11 2 17 5 13 3 -3 4 -12 1 -19z
m1334 -51 c-14 -14 -51 19 -51 45 0 21 11 23 28 6 9 -9 12 -8 13 8 0 11 5 5
11 -15 6 -23 6 -37 -1 -44z m-2597 -19 c7 -5 4 -8 -6 -8 -12 0 -18 7 -17 23 0
15 2 17 6 7 3 -8 11 -18 17 -22z m2016 -70 c0 -16 -3 -19 -11 -11 -6 6 -8 16
-5 22 11 17 16 13 16 -11z"/>
<path d="M12234 14227 c-8 -21 -3 -29 13 -19 8 5 9 13 3 22 -7 12 -10 12 -16
-3z"/>
<path d="M11473 14218 c-15 -19 -24 -66 -15 -72 14 -8 64 45 58 61 -3 8 -6 17
-6 19 0 9 -28 3 -37 -8z"/>
<path d="M11346 14155 c-3 -8 -1 -15 4 -15 6 0 10 7 10 15 0 8 -2 15 -4 15 -2
0 -6 -7 -10 -15z"/>
<path d="M10720 14140 c0 -5 5 -10 10 -10 6 0 10 5 10 10 0 6 -4 10 -10 10 -5
0 -10 -4 -10 -10z"/>
<path d="M12145 14141 c-7 -12 12 -24 25 -16 11 7 4 25 -10 25 -5 0 -11 -4
-15 -9z"/>
<path d="M12065 14102 c-6 -4 -10 -17 -9 -29 1 -18 -4 -23 -25 -23 -22 -1 -24
-2 -8 -11 9 -5 17 -17 17 -24 0 -9 10 -15 24 -15 18 0 25 6 28 23 2 18 9 22
36 21 17 -1 32 2 32 7 0 5 -7 9 -14 9 -8 0 -27 11 -42 25 -15 14 -27 25 -28
25 -1 0 -6 -4 -11 -8z"/>
<path d="M12000 13980 c0 -5 5 -10 10 -10 6 0 10 5 10 10 0 6 -4 10 -10 10 -5
0 -10 -4 -10 -10z"/>
<path d="M13540 13930 c0 -5 5 -10 10 -10 6 0 10 5 10 10 0 6 -4 10 -10 10 -5
0 -10 -4 -10 -10z"/>
<path d="M4408 13513 c7 -3 16 -2 19 1 4 3 -2 6 -13 5 -11 0 -14 -3 -6 -6z"/>
<path d="M4278 13463 c7 -3 16 -2 19 1 4 3 -2 6 -13 5 -11 0 -14 -3 -6 -6z"/>
<path d="M13877 13273 c-10 -9 -9 -103 1 -103 11 0 32 74 22 78 -5 2 -6 10 -3
18 5 14 -8 19 -20 7z"/>
<path d="M5781 12864 c0 -11 3 -14 6 -6 3 7 2 16 -1 19 -3 4 -6 -2 -5 -13z"/>
<path d="M6420 12865 c-10 -12 -10 -15 3 -15 8 0 20 7 27 15 10 12 10 15 -3
15 -8 0 -20 -7 -27 -15z"/>
<path d="M5805 12861 c-3 -5 -1 -12 5 -16 5 -3 10 1 10 9 0 18 -6 21 -15 7z"/>
<path d="M5668 12810 c-8 -13 -19 -18 -34 -14 -12 3 -25 1 -28 -5 -11 -17 -37
-13 -52 7 -7 9 -24 17 -38 17 -21 1 -26 -4 -26 -22 0 -13 5 -23 11 -23 14 0
39 -25 39 -39 0 -6 -4 -11 -10 -11 -5 0 -10 -7 -10 -15 0 -8 -7 -15 -16 -15
-8 0 -13 4 -10 9 3 5 -10 11 -30 13 -32 4 -35 2 -30 -18 5 -19 1 -22 -34 -28
-47 -7 -54 -32 -12 -42 15 -4 39 -13 53 -20 14 -7 29 -9 35 -6 11 8 12 37 1
48 -4 4 -7 15 -7 23 0 13 10 16 53 16 52 -1 107 -18 107 -33 0 -10 -38 -42
-50 -42 -6 0 -10 -9 -10 -21 0 -12 -8 -23 -19 -26 -11 -3 -21 -12 -24 -22 -3
-13 3 -16 33 -13 25 3 40 -1 50 -13 20 -25 -6 -38 -36 -18 -22 14 -26 13 -53
-9 -21 -16 -30 -30 -28 -48 2 -24 5 -25 57 -22 30 2 59 7 65 13 15 15 62 11
69 -7 3 -8 1 -24 -4 -34 -6 -10 -10 -28 -10 -39 0 -12 -7 -21 -15 -21 -22 0
-18 -16 6 -34 21 -14 21 -15 -16 -22 -21 -4 -46 -2 -58 4 -12 6 -38 14 -57 17
-19 4 -44 13 -55 19 -11 7 -44 16 -74 19 -44 5 -57 3 -66 -10 -11 -15 -14 -14
-33 5 -15 15 -22 18 -22 8 0 -14 -34 -28 -44 -18 -3 3 -6 14 -6 23 0 12 -18
28 -50 44 -35 18 -50 31 -50 45 0 16 -7 20 -30 20 -23 0 -31 5 -36 25 -9 37
-27 47 -71 39 -31 -6 -34 -8 -18 -15 11 -4 32 -8 48 -8 42 -1 32 -20 -15 -28
-24 -4 -47 -6 -51 -5 -5 1 -6 -1 -3 -6 3 -5 27 -7 54 -4 l50 4 4 -36 c2 -21 0
-36 -7 -36 -5 0 -17 -4 -25 -10 -12 -7 -5 -18 33 -55 26 -26 47 -53 47 -61 0
-26 -46 -39 -101 -28 -27 6 -52 7 -54 4 -3 -4 0 -21 6 -38 7 -21 19 -33 37
-37 72 -16 82 -65 13 -65 -23 0 -41 -5 -44 -12 -3 -10 -7 -10 -18 -1 -11 9
-18 8 -31 -1 -16 -12 -16 -14 -1 -35 14 -21 14 -24 0 -39 -14 -13 -21 -14 -56
-2 -23 7 -48 21 -57 32 -10 10 -25 18 -34 18 -23 0 -29 8 -23 31 3 12 14 19
29 19 13 0 24 5 24 10 0 6 -12 10 -26 10 -14 0 -23 4 -20 9 9 15 -21 21 -51
10 -23 -7 -31 -19 -39 -55 -9 -38 -8 -47 4 -52 8 -3 23 0 33 7 17 10 19 8 19
-19 0 -21 5 -30 16 -30 10 0 14 6 11 14 -5 12 -1 13 16 7 12 -5 21 -16 21 -25
-1 -9 2 -16 7 -16 5 0 6 -7 3 -15 -4 -8 1 -17 10 -21 9 -3 16 -14 16 -23 0 -9
16 -27 35 -40 33 -22 40 -46 10 -34 -29 10 -65 -6 -65 -30 0 -30 29 -70 46
-63 11 4 14 -6 14 -45 0 -28 -5 -59 -10 -70 -8 -14 -7 -19 3 -19 7 0 24 -11
37 -25 13 -14 31 -25 41 -25 10 0 21 -4 24 -10 3 -5 15 -10 26 -10 11 0 17 5
14 10 -10 15 5 12 22 -5 14 -14 17 -14 35 2 17 16 18 18 4 21 -9 2 -16 10 -16
18 0 8 -5 14 -12 14 -9 0 -9 3 0 12 8 8 15 8 25 -1 9 -7 30 -9 55 -5 36 6 40
4 46 -20 4 -15 3 -34 -2 -43 -5 -9 -7 -24 -4 -35 2 -10 -4 -28 -14 -39 -18
-21 -18 -21 14 -51 50 -44 66 -36 75 37 1 14 -3 19 -14 17 -24 -3 -46 25 -31
40 7 7 12 20 12 30 0 11 9 29 21 41 17 18 31 22 83 22 41 0 70 6 87 16 28 19
18 39 -11 21 -23 -14 -86 -16 -95 -2 -7 11 20 78 41 101 13 14 21 15 45 7 16
-5 34 -18 39 -29 10 -18 85 -47 96 -36 3 3 3 15 -1 27 -5 16 -10 19 -18 11
-15 -15 -24 -14 -30 3 -3 8 3 22 13 31 18 16 20 15 34 -18 15 -37 24 -39 99
-24 30 5 49 57 22 57 -8 0 -15 8 -15 19 0 10 -7 24 -15 31 -31 26 -13 43 47
46 44 3 62 -1 81 -16 31 -25 55 -25 85 -1 22 19 30 66 12 73 -11 4 -1 48 11
48 5 0 9 -8 10 -17 0 -11 3 -13 6 -5 2 6 18 12 34 12 19 0 29 5 29 15 0 17
-16 20 -25 5 -3 -5 -15 -10 -26 -10 -11 0 -17 5 -14 10 3 6 -5 10 -19 10 -18
0 -24 -4 -20 -14 4 -10 -4 -16 -25 -21 -41 -9 -51 0 -51 41 0 25 8 42 32 64
21 21 35 27 42 20 16 -16 55 -12 73 9 13 16 21 18 36 9 13 -7 22 -7 30 1 10
10 8 12 -33 24 -10 3 -3 12 23 27 42 25 46 53 9 58 -17 3 -22 -2 -22 -18 0
-11 -6 -23 -14 -26 -25 -9 -51 13 -51 42 0 23 -9 33 -54 59 -37 20 -57 39 -64
58 -11 35 -3 45 56 69 26 10 34 17 22 17 -11 1 -25 9 -32 19 -6 11 -33 29 -60
42 -26 12 -58 34 -71 47 -22 24 -22 26 -6 44 21 23 38 15 24 -12 -9 -15 -7
-19 5 -19 8 0 15 8 15 18 1 14 5 12 25 -10 18 -21 33 -28 59 -28 19 0 46 -4
60 -10 32 -12 66 -65 59 -91 -5 -16 0 -19 33 -19 40 -1 74 -18 74 -39 0 -10 7
-12 52 -15 18 -1 51 -40 55 -66 1 -8 10 -20 20 -27 43 -29 45 -34 26 -49 -10
-7 -28 -14 -40 -14 -13 0 -23 -4 -23 -10 0 -5 -12 -10 -27 -10 l-28 0 25 -23
c21 -20 27 -21 38 -10 7 7 20 13 28 13 9 0 22 7 30 15 17 16 64 20 80 6 5 -5
27 -14 48 -21 37 -12 38 -14 21 -26 -18 -13 -18 -14 2 -14 12 0 23 -5 25 -12
3 -9 6 -9 12 0 4 7 2 12 -4 12 -6 0 -8 5 -4 11 4 7 7 21 8 33 1 30 46 36 46 7
0 -12 -4 -21 -10 -21 -5 0 -10 -4 -10 -10 0 -5 8 -10 19 -10 10 0 24 -7 31
-15 7 -8 17 -15 22 -15 6 0 26 -7 45 -17 30 -14 36 -14 45 -2 7 11 11 11 15 2
6 -17 31 -16 49 2 9 8 24 15 35 15 10 0 19 4 19 9 0 13 -26 32 -33 24 -8 -7
-46 37 -47 55 0 18 37 15 44 -4 4 -9 13 -14 21 -10 8 3 15 0 15 -6 0 -6 7 -16
15 -22 13 -10 13 -14 1 -38 -14 -26 -13 -28 7 -32 12 -3 34 -7 49 -10 38 -9
47 13 15 39 -27 21 -36 45 -17 45 6 0 10 6 10 13 0 17 98 18 104 0 3 -7 17
-18 31 -23 21 -8 25 -16 25 -50 0 -28 4 -40 14 -40 8 0 18 5 21 10 3 6 1 10
-6 10 -8 0 -9 10 -4 33 3 17 8 38 9 46 1 7 13 19 27 27 24 12 23 13 -23 25
-39 11 -48 17 -48 35 0 12 -7 34 -15 50 -13 25 -18 28 -63 25 -34 -2 -52 2
-61 13 -17 20 -7 46 19 53 25 7 25 11 -2 41 l-23 23 24 18 c17 13 22 24 17 36
-4 12 0 23 15 33 l21 15 -28 17 c-43 27 -127 36 -147 16 -8 -9 -19 -16 -23
-16 -4 0 -16 -7 -26 -16 -12 -12 -22 -14 -30 -7 -7 6 -34 17 -59 25 -60 20
-132 85 -79 71 33 -9 23 45 -12 63 -16 8 -28 18 -28 22 0 4 -18 15 -40 25 -36
15 -56 47 -29 47 6 0 9 12 7 28 -2 19 -9 28 -26 30 -26 4 -52 -13 -52 -35 0
-7 -9 -24 -21 -36 -15 -17 -19 -18 -14 -4 9 22 -4 22 -32 -1 -28 -21 -21 -62
11 -63 11 0 -1 -7 -28 -14 -49 -14 -101 -11 -112 6 -3 5 -16 9 -29 9 -15 0
-26 7 -30 20 -8 25 -43 34 -95 26 -33 -5 -40 -3 -45 14 -3 11 -10 20 -15 20
-4 0 -22 14 -40 30 -39 36 -93 41 -112 10z m432 -364 c0 -45 -15 -51 -54 -21
-42 32 -43 38 -13 74 l22 28 23 -31 c12 -16 22 -39 22 -50z m-450 13 c0 -5
-10 -9 -21 -9 -18 0 -19 2 -9 15 12 15 30 12 30 -6z m845 1 c-3 -5 -10 -10
-16 -10 -5 0 -9 5 -9 10 0 6 7 10 16 10 8 0 12 -4 9 -10z m152 -26 c6 -16 -19
-44 -39 -44 -19 0 -21 33 -3 46 25 18 34 18 42 -2z m-167 -4 c0 -5 -4 -10 -9
-10 -6 0 -13 5 -16 10 -3 6 1 10 9 10 9 0 16 -4 16 -10z m-170 -27 c50 -34 47
-49 -10 -55 -30 -3 -36 1 -44 25 -8 22 -7 30 4 37 20 13 22 13 50 -7z m280
-33 c0 -5 6 -10 14 -10 8 0 17 -7 20 -16 3 -9 11 -12 18 -8 8 5 9 2 5 -10 -4
-10 -7 -27 -7 -39 0 -16 -9 -25 -34 -33 -44 -14 -71 -3 -84 35 -6 17 -17 31
-25 31 -8 0 -20 7 -27 15 -10 12 -9 16 4 21 9 3 13 10 10 15 -3 5 20 9 50 9
31 0 56 -4 56 -10z m-1090 -120 c0 -13 -7 -20 -18 -20 -10 0 -22 -3 -26 -7 -9
-9 -86 -4 -105 7 -10 5 -10 9 -2 14 6 4 11 2 11 -3 0 -6 18 -11 40 -11 22 0
40 4 40 10 0 5 7 7 15 4 8 -4 17 1 21 10 9 22 24 20 24 -4z m-152 -47 c-21 -5
-23 -14 -7 -30 7 -7 6 -12 -5 -16 -10 -4 -20 1 -26 14 -14 26 -5 39 28 38 17
-1 21 -3 10 -6z m1392 -24 c0 -5 -25 -9 -55 -9 -37 0 -55 4 -55 13 0 8 16 11
55 9 30 -2 55 -8 55 -13z m-1205 -50 c11 -16 -2 -22 -32 -15 -21 6 -24 9 -12
17 19 12 36 11 44 -2z m-74 -29 c26 -14 24 -30 -4 -30 -13 0 -28 -5 -34 -11
-8 -8 -17 -5 -32 10 -12 12 -21 26 -21 31 0 13 66 13 91 0z m-168 -84 c17 -13
17 -15 1 -30 -9 -9 -21 -14 -28 -11 -6 3 -19 8 -28 11 -18 6 -24 25 -11 37 11
11 47 7 66 -7z m413 -73 c-10 -10 -19 5 -10 18 6 11 8 11 12 0 2 -7 1 -15 -2
-18z m-749 -19 c7 -18 -12 -34 -39 -34 -22 0 -23 14 -2 34 20 20 33 20 41 0z
m473 -134 c10 -6 11 -10 3 -10 -7 0 -13 -7 -13 -15 0 -19 -5 -19 -35 1 -14 9
-22 20 -19 25 7 12 45 11 64 -1z m95 -50 c3 -5 1 -10 -4 -10 -6 0 -11 5 -11
10 0 6 2 10 4 10 3 0 8 -4 11 -10z"/>
<path d="M6320 12800 c0 -5 18 -10 40 -10 22 0 40 5 40 10 0 6 -18 10 -40 10
-22 0 -40 -4 -40 -10z"/>
<path d="M5251 12704 c-1 -6 -13 -24 -27 -39 -14 -15 -23 -33 -20 -40 2 -7 -3
-20 -13 -29 -27 -24 -16 -66 17 -66 13 0 31 -8 38 -17 12 -16 14 -14 15 17 1
19 1 39 0 44 -2 12 31 35 51 36 9 0 20 5 24 11 7 12 -43 69 -62 69 -7 0 -15 6
-17 13 -3 7 -6 7 -6 1z"/>
<path d="M5492 12618 c2 -6 10 -14 16 -16 7 -2 10 2 6 12 -7 18 -28 22 -22 4z"/>
<path d="M13399 12587 c-23 -22 -43 -25 -62 -9 -19 17 -32 11 -24 -12 4 -10
13 -13 22 -9 12 4 16 1 15 -13 -4 -36 0 -44 23 -45 21 0 21 -1 2 -8 -12 -5
-25 -3 -33 6 -7 7 -20 13 -28 13 -8 0 -17 13 -20 30 -4 17 -13 30 -20 30 -17
0 -18 -17 -2 -22 9 -3 8 -9 -5 -22 -21 -22 -22 -30 -1 -22 12 4 15 0 12 -17
-2 -18 -9 -22 -40 -22 -21 0 -38 -3 -38 -6 0 -4 -9 -9 -20 -12 -10 -3 -18 0
-17 5 4 21 -21 18 -28 -2 -9 -30 -3 -33 68 -36 75 -3 115 -8 124 -17 10 -11
71 -8 78 4 4 5 0 18 -8 27 -15 16 -13 21 17 56 30 36 32 42 21 72 -15 44 -20
48 -36 31z m-72 -143 c-3 -3 -12 -4 -19 -1 -8 3 -5 6 6 6 11 1 17 -2 13 -5z"/>
<path d="M13193 12554 c-7 -7 -9 -15 -4 -18 5 -3 14 1 20 8 15 18 0 28 -16 10z"/>
<path d="M4890 12530 c-11 -11 -20 -30 -19 -42 0 -13 3 -17 6 -10 2 6 13 12
24 12 11 0 23 10 28 23 16 40 -6 50 -39 17z"/>
<path d="M4830 12530 c-8 -5 -10 -10 -5 -10 6 0 17 5 25 10 8 5 11 10 5 10 -5
0 -17 -5 -25 -10z"/>
<path d="M13210 12520 c0 -5 7 -10 15 -10 8 0 15 5 15 10 0 6 -7 10 -15 10 -8
0 -15 -4 -15 -10z"/>
<path d="M6820 12500 c0 -5 5 -10 10 -10 6 0 10 5 10 10 0 6 -4 10 -10 10 -5
0 -10 -4 -10 -10z"/>
<path d="M7034 12475 c-14 -14 -29 -25 -34 -25 -29 0 6 -48 40 -55 25 -5 35
-1 65 29 40 41 41 44 18 62 -28 21 -61 16 -89 -11z"/>
<path d="M13506 12491 c-4 -7 -5 -15 -2 -18 9 -9 19 4 14 18 -4 11 -6 11 -12
0z"/>
<path d="M13523 12467 c-10 -22 -9 -23 13 -19 27 5 26 4 18 26 -9 22 -19 20
-31 -7z"/>
<path d="M6801 12464 c0 -11 3 -14 6 -6 3 7 2 16 -1 19 -3 4 -6 -2 -5 -13z"/>
<path d="M13672 12468 c5 -15 28 -23 28 -10 0 5 -7 13 -16 16 -10 4 -14 1 -12
-6z"/>
<path d="M13468 12409 c-16 -9 -26 -39 -13 -39 15 0 54 33 49 41 -7 11 -15 11
-36 -2z"/>
<path d="M4557 12383 c-7 -6 -10 -43 -3 -43 1 0 17 5 35 11 25 9 29 14 20 25
-12 15 -41 19 -52 7z"/>
<path d="M5245 12360 c-7 -12 2 -30 16 -30 5 0 9 9 9 20 0 21 -15 27 -25 10z"/>
<path d="M7099 12344 c-6 -8 -15 -12 -19 -9 -15 9 -21 -14 -8 -34 6 -11 27
-22 47 -25 20 -3 53 -8 74 -12 29 -5 37 -3 37 9 0 8 6 18 13 21 8 3 6 9 -8 20
-11 8 -25 19 -30 24 -20 17 -93 21 -106 6z"/>
<path d="M6897 12270 c-9 -11 -17 -27 -17 -34 0 -18 33 -30 59 -21 11 3 25 -1
34 -10 9 -8 21 -15 27 -15 7 0 9 -8 5 -21 -6 -19 -4 -21 13 -16 12 3 26 -1 33
-9 7 -8 30 -14 55 -14 32 0 44 -4 44 -15 0 -8 4 -15 8 -15 11 0 52 39 52 50 0
4 3 15 6 24 5 13 -1 16 -27 16 -19 0 -43 7 -53 15 -10 8 -23 12 -28 9 -5 -3
-19 1 -32 9 -16 11 -33 13 -66 7 -32 -6 -47 -4 -57 6 -8 7 -13 15 -13 16 3 7
-13 38 -19 38 -4 0 -14 -9 -24 -20z"/>
<path d="M11592 12150 c0 -14 2 -19 5 -12 2 6 2 18 0 25 -3 6 -5 1 -5 -13z"/>
<path d="M5976 12135 c-4 -11 1 -15 19 -15 16 0 25 6 25 15 0 8 -9 15 -19 15
-10 0 -21 -7 -25 -15z"/>
<path d="M10998 12123 c7 -3 16 -2 19 1 4 3 -2 6 -13 5 -11 0 -14 -3 -6 -6z"/>
<path d="M10996 12092 c-8 -13 30 -46 43 -37 6 3 11 11 11 17 0 6 -3 8 -7 5
-3 -4 -14 0 -24 9 -9 8 -20 11 -23 6z"/>
<path d="M4594 12078 c-4 -6 1 -17 11 -25 28 -20 36 -16 23 12 -12 27 -23 31
-34 13z"/>
<path d="M13293 12083 c9 -2 17 -9 17 -14 0 -15 17 -10 24 6 4 12 -2 15 -27
14 -18 -1 -24 -3 -14 -6z"/>
<path d="M11040 12040 c0 -5 5 -10 10 -10 6 0 10 5 10 10 0 6 -4 10 -10 10 -5
0 -10 -4 -10 -10z"/>
<path d="M13281 12004 c-15 -49 -7 -69 22 -58 15 5 18 15 21 69 1 8 -3 15 -8
14 -5 0 -12 4 -15 10 -4 6 -13 -10 -20 -35z"/>
<path d="M11153 12013 c-33 -17 -47 -40 -17 -29 9 3 27 6 40 6 17 0 24 6 24
20 0 24 -5 24 -47 3z"/>
<path d="M6650 12010 c0 -5 7 -10 15 -10 8 0 15 5 15 10 0 6 -7 10 -15 10 -8
0 -15 -4 -15 -10z"/>
<path d="M13375 11940 c-11 -17 5 -32 21 -19 7 6 11 15 8 20 -7 12 -21 11 -29
-1z"/>
<path d="M4611 11754 c0 -11 3 -14 6 -6 3 7 2 16 -1 19 -3 4 -6 -2 -5 -13z"/>
<path d="M5638 11709 l-17 -30 27 3 c42 5 71 38 33 38 -11 0 -21 4 -23 10 -1
5 -11 -4 -20 -21z"/>
<path d="M4680 11716 c0 -9 0 -19 -1 -23 0 -4 4 -9 10 -11 14 -5 14 35 1 43
-5 3 -10 -1 -10 -9z"/>
<path d="M4595 11700 c4 -6 11 -8 16 -5 14 9 11 15 -7 15 -8 0 -12 -5 -9 -10z"/>
<path d="M4723 11691 c-10 -15 -9 -20 2 -25 9 -3 15 1 15 9 0 8 9 15 20 15 11
0 20 -7 20 -15 0 -8 5 -15 10 -15 6 0 10 11 10 25 0 22 -4 25 -33 25 -21 0
-36 -7 -44 -19z"/>
<path d="M5500 11655 c0 -7 -9 -19 -21 -26 -17 -12 -18 -17 -7 -31 15 -20 52
-15 88 12 l24 18 -42 20 c-30 15 -42 17 -42 7z"/>
<path d="M11528 11643 c7 -3 16 -2 19 1 4 3 -2 6 -13 5 -11 0 -14 -3 -6 -6z"/>
<path d="M11280 11610 c0 -5 5 -10 10 -10 6 0 10 5 10 10 0 6 -4 10 -10 10 -5
0 -10 -4 -10 -10z"/>
<path d="M4695 11600 c3 -5 10 -10 16 -10 5 0 9 5 9 10 0 6 -7 10 -16 10 -8 0
-12 -4 -9 -10z"/>
<path d="M13791 11594 c0 -11 3 -14 6 -6 3 7 2 16 -1 19 -3 4 -6 -2 -5 -13z"/>
<path d="M5586 11584 c-22 -22 -20 -27 9 -20 14 4 25 2 25 -4 0 -5 11 -10 25
-10 14 0 25 6 25 13 0 9 3 8 9 -2 6 -9 16 -11 32 -6 13 5 37 8 52 7 24 -1 26
2 16 14 -8 10 -15 12 -23 4 -14 -14 -39 -13 -72 5 -38 19 -79 19 -98 -1z"/>
<path d="M4770 11551 c0 -6 7 -11 16 -11 12 0 15 -6 10 -25 -4 -15 -2 -25 4
-25 19 0 7 64 -12 68 -10 2 -18 -1 -18 -7z"/>
<path d="M5368 11532 c-10 -2 -18 -8 -18 -13 0 -6 5 -7 11 -3 7 4 10 -1 7 -12
-2 -12 -18 -22 -42 -29 l-39 -11 33 -14 c19 -8 42 -13 52 -13 10 1 19 -5 19
-13 1 -8 2 -18 3 -23 2 -17 57 -53 72 -47 20 8 14 36 -10 50 -11 6 -29 19 -40
28 -17 16 -18 21 -6 43 8 14 24 28 37 31 13 4 23 12 23 19 0 13 -59 17 -102 7z"/>
<path d="M13670 11530 c-9 -5 -9 -9 -1 -14 6 -4 11 -4 11 0 0 3 7 1 15 -6 14
-12 35 -6 35 9 0 12 -46 20 -60 11z"/>
<path d="M4993 11487 c-7 -11 15 -27 38 -27 9 0 19 8 21 18 4 13 -2 17 -24 18
-16 1 -31 -3 -35 -9z"/>
<path d="M4588 11442 c-22 -4 -24 -32 -3 -32 8 0 15 6 15 13 0 8 4 7 10 -3 5
-8 10 -10 10 -5 0 19 -15 31 -32 27z"/>
<path d="M4875 11440 c-3 -5 -4 -14 -1 -19 3 -5 -1 -12 -10 -15 -10 -4 -13 -2
-8 6 5 8 -3 9 -29 5 -20 -3 -39 -2 -41 2 -8 12 -59 7 -64 -7 -3 -9 3 -13 19
-11 30 3 90 -10 107 -23 8 -7 17 -6 28 3 13 11 17 10 25 -4 16 -27 34 -20 34
13 0 20 -6 32 -17 36 -10 3 -18 10 -18 15 0 12 -17 12 -25 -1z"/>
<path d="M4920 11440 c0 -5 9 -10 20 -10 11 0 20 5 20 10 0 6 -9 10 -20 10
-11 0 -20 -4 -20 -10z"/>
<path d="M5230 11426 c0 -9 5 -16 10 -16 6 0 10 4 10 9 0 6 -4 13 -10 16 -5 3
-10 -1 -10 -9z"/>
<path d="M5045 11410 c-3 -5 -2 -10 4 -10 5 0 13 5 16 10 3 6 2 10 -4 10 -5 0
-13 -4 -16 -10z"/>
<path d="M4595 11390 c-3 -5 3 -10 14 -10 11 0 23 5 26 10 3 6 -3 10 -14 10
-11 0 -23 -4 -26 -10z"/>
<path d="M11360 11360 c0 -5 4 -10 9 -10 6 0 13 5 16 10 3 6 -1 10 -9 10 -9 0
-16 -4 -16 -10z"/>
<path d="M5343 11352 c-25 -17 -44 -82 -23 -82 6 0 10 15 11 33 0 17 3 26 6
20 5 -14 43 -18 43 -5 -1 16 -27 40 -37 34z"/>
<path d="M12485 11310 c3 -5 8 -10 11 -10 2 0 4 5 4 10 0 6 -5 10 -11 10 -5 0
-7 -4 -4 -10z"/>
<path d="M5380 11280 c0 -5 5 -10 11 -10 5 0 7 5 4 10 -3 6 -8 10 -11 10 -2 0
-4 -4 -4 -10z"/>
<path d="M4948 11273 c7 -3 16 -2 19 1 4 3 -2 6 -13 5 -11 0 -14 -3 -6 -6z"/>
<path d="M4820 11220 c0 -5 5 -10 10 -10 6 0 10 5 10 10 0 6 -4 10 -10 10 -5
0 -10 -4 -10 -10z"/>
<path d="M5037 11209 c3 -10 12 -19 19 -19 20 0 17 13 -5 27 -16 10 -18 9 -14
-8z"/>
<path d="M5330 11180 c0 -5 7 -10 16 -10 8 0 12 5 9 10 -3 6 -10 10 -16 10 -5
0 -9 -4 -9 -10z"/>
<path d="M4278 11163 c7 -3 16 -2 19 1 4 3 -2 6 -13 5 -11 0 -14 -3 -6 -6z"/>
<path d="M13078 11149 c-14 -21 -23 -24 -76 -22 -57 1 -60 0 -65 -24 -8 -41 3
-64 34 -70 16 -3 29 -11 28 -17 -3 -27 2 -35 19 -30 16 5 16 5 0 -6 -23 -14
-23 -30 0 -30 27 0 68 40 51 51 -8 5 0 10 24 14 25 5 42 3 52 -5 13 -10 19 -9
35 5 28 26 26 48 -4 43 -21 -4 -25 0 -29 26 -6 38 -4 41 22 24 30 -18 45 1 22
30 -11 15 -31 25 -57 29 -34 4 -42 2 -56 -18z"/>
<path d="M4395 11150 c3 -5 10 -10 16 -10 5 0 9 5 9 10 0 6 -7 10 -16 10 -8 0
-12 -4 -9 -10z"/>
<path d="M11776 11112 c-3 -6 -1 -14 5 -17 15 -10 25 3 12 16 -7 7 -13 7 -17
1z"/>
<path d="M9520 11101 c0 -9 24 -21 43 -21 6 0 2 7 -9 15 -22 17 -34 19 -34 6z"/>
<path d="M11585 11080 c3 -5 8 -10 11 -10 2 0 4 5 4 10 0 6 -5 10 -11 10 -5 0
-7 -4 -4 -10z"/>
<path d="M11540 11070 c0 -5 5 -10 10 -10 6 0 10 5 10 10 0 6 -4 10 -10 10 -5
0 -10 -4 -10 -10z"/>
<path d="M11760 11060 c0 -5 5 -10 11 -10 5 0 7 5 4 10 -3 6 -8 10 -11 10 -2
0 -4 -4 -4 -10z"/>
<path d="M11697 11054 c-8 -8 1 -24 14 -24 5 0 9 7 9 15 0 15 -12 20 -23 9z"/>
<path d="M9514 11039 c-3 -6 -2 -15 3 -20 5 -5 9 -1 9 11 0 23 -2 24 -12 9z"/>
<path d="M11565 11030 c4 -6 11 -8 16 -5 14 9 11 15 -7 15 -8 0 -12 -5 -9 -10z"/>
<path d="M9520 10980 c0 -5 5 -10 11 -10 5 0 7 5 4 10 -3 6 -8 10 -11 10 -2 0
-4 -4 -4 -10z"/>
<path d="M11600 10974 c0 -8 5 -12 10 -9 6 3 10 10 10 16 0 5 -4 9 -10 9 -5 0
-10 -7 -10 -16z"/>
<path d="M11666 10972 c-3 -5 -1 -24 4 -42 5 -18 7 -37 4 -42 -4 -6 2 -8 12
-6 15 3 19 11 17 37 -1 34 -26 70 -37 53z"/>
<path d="M13305 10971 c-27 -6 -31 -11 -26 -40 0 -6 19 -9 41 -9 29 0 41 5 45
19 4 11 13 19 21 19 8 0 12 5 9 10 -7 11 -43 11 -90 1z"/>
<path d="M11693 10844 c9 -3 17 -10 17 -15 0 -5 11 -9 24 -9 15 0 26 -7 28
-17 2 -12 6 -14 10 -7 12 19 -15 42 -57 47 -22 3 -32 3 -22 1z"/>
<path d="M12140 10752 c1 -18 17 -29 34 -22 20 7 16 12 -16 23 -10 4 -18 3
-18 -1z"/>
<path d="M12226 10691 c-3 -5 1 -11 9 -15 8 -3 15 -1 15 4 0 13 -18 22 -24 11z"/>
<path d="M12150 10675 c0 -8 9 -15 20 -15 11 0 20 2 20 5 0 2 -9 9 -20 15 -16
9 -20 8 -20 -5z"/>
<path d="M14345 10292 c3 -18 2 -33 -4 -37 -16 -9 -13 -22 4 -22 10 0 15 11
15 34 0 18 0 36 1 40 0 4 -5 9 -11 11 -9 3 -10 -5 -5 -26z"/>
<path d="M14307 10220 c28 -11 20 -48 -13 -56 -15 -4 -24 -14 -24 -25 0 -23
-32 -41 -67 -37 -21 2 -30 -3 -38 -19 -5 -13 -15 -23 -22 -23 -7 0 -13 -12
-13 -26 0 -23 -3 -25 -25 -20 -17 4 -31 0 -44 -13 -11 -11 -27 -21 -37 -23
-10 -1 -27 -21 -38 -43 -12 -22 -28 -41 -36 -41 -8 -1 -25 -2 -37 -3 -16 -1
-23 -8 -25 -28 -3 -25 -7 -28 -38 -28 -26 0 -35 -4 -34 -16 1 -11 -5 -14 -23
-11 -18 3 -26 -1 -30 -17 -3 -11 -13 -22 -22 -23 -9 0 -21 -2 -28 -2 -6 -1
-21 -12 -32 -25 -12 -13 -27 -21 -35 -18 -9 4 -18 2 -22 -4 -3 -6 -12 -8 -19
-5 -7 2 -15 -4 -18 -15 -4 -14 0 -19 15 -19 13 0 18 -5 15 -14 -3 -8 2 -21 12
-30 21 -19 67 -21 74 -3 2 6 8 9 13 4 29 -28 -78 -49 -161 -32 -34 7 -38 6
-28 -6 19 -24 -8 -52 -39 -40 -25 9 -59 -2 -45 -15 10 -10 77 -12 77 -2 0 4 4
8 10 8 5 0 9 -6 7 -12 -2 -15 56 -12 61 3 2 5 14 6 28 3 17 -4 26 -1 30 10 4
10 13 14 24 11 11 -3 20 1 24 10 3 9 10 13 16 10 6 -3 13 0 16 8 16 43 130 47
133 4 1 -12 2 -33 4 -47 2 -20 -2 -25 -20 -23 -11 1 -27 -4 -34 -13 -10 -12
-7 -20 14 -42 34 -36 34 -49 -1 -57 -32 -6 -40 -35 -10 -35 10 0 18 -4 18 -10
0 -5 -6 -10 -14 -10 -17 0 -44 -41 -39 -57 3 -7 19 -13 37 -13 18 0 38 6 45
13 11 10 14 10 18 0 3 -7 16 -13 29 -13 14 0 24 -6 24 -14 0 -14 28 -27 70
-30 45 -4 49 -6 55 -26 5 -15 15 -20 41 -20 19 0 34 5 34 10 0 6 -5 10 -11 10
-5 0 -8 4 -5 8 2 4 1 14 -3 21 -5 7 -5 27 -2 44 6 26 12 32 31 32 18 0 26 6
28 23 4 25 42 32 42 7 0 -11 5 -12 24 -6 22 9 81 1 104 -13 13 -8 25 92 16
141 -4 21 -14 45 -23 54 -14 14 -19 14 -38 2 -25 -17 -45 -10 -36 12 6 18 -15
47 -28 39 -5 -3 -9 2 -9 11 0 14 -3 14 -25 -1 -30 -19 -32 -18 -37 20 -2 21 3
32 17 40 11 6 22 14 25 18 3 3 21 9 41 13 31 6 35 10 37 41 3 38 -12 50 -52
40 -15 -4 -26 -15 -29 -33 -4 -16 -10 -34 -15 -41 -10 -15 -42 -5 -42 13 0 7
-7 18 -15 25 -9 8 -13 21 -9 33 4 14 2 18 -7 14 -8 -2 -13 -10 -11 -16 1 -6
-2 -11 -8 -11 -5 0 -10 -4 -10 -10 0 -5 -11 -21 -25 -35 -26 -25 -55 -33 -55
-15 0 6 -6 10 -14 10 -7 0 -19 7 -26 15 -11 13 -10 18 6 30 10 8 25 15 32 15
7 0 22 9 34 20 19 17 45 25 70 21 4 0 10 10 14 24 3 14 13 25 21 25 7 0 25 11
39 25 14 14 30 25 37 25 7 0 19 9 27 20 14 19 60 28 60 12 0 -5 11 -14 24 -20
24 -11 25 -9 32 34 3 24 5 89 2 144 -3 89 -6 101 -27 119 -13 12 -31 21 -40
20 -11 0 -9 -3 6 -9z m-551 -567 c-11 -11 -19 6 -11 24 8 17 8 17 12 0 3 -10
2 -21 -1 -24z m387 -163 c-20 -23 -53 -27 -53 -6 0 8 12 17 28 19 15 2 30 5
34 6 4 0 0 -8 -9 -19z m7 -100 c0 -5 -6 -10 -14 -10 -8 0 -18 5 -21 10 -3 6 3
10 14 10 12 0 21 -4 21 -10z m-162 -78 c2 -8 -8 -12 -30 -12 -31 1 -32 1 -13
15 21 17 37 15 43 -3z"/>
<path d="M14353 9825 c0 -27 2 -38 4 -22 2 15 2 37 0 50 -2 12 -4 0 -4 -28z"/>
<path d="M13716 9544 c3 -34 8 -38 33 -22 24 15 22 34 -3 30 -9 -2 -16 2 -16
8 0 5 -4 10 -9 10 -4 0 -7 -12 -5 -26z"/>
<path d="M13457 9470 c-6 -24 2 -30 28 -19 19 7 19 8 1 8 -15 1 -16 4 -6 16
10 12 10 15 -3 15 -8 0 -17 -9 -20 -20z"/>
<path d="M13696 9443 c-6 -16 8 -33 29 -33 21 0 38 19 32 34 -8 21 -53 21 -61
-1z"/>
<path d="M13520 9430 c0 -5 5 -10 11 -10 5 0 7 5 4 10 -3 6 -8 10 -11 10 -2 0
-4 -4 -4 -10z"/>
<path d="M13676 9291 c-8 -12 3 -41 15 -41 12 0 12 37 0 45 -5 3 -12 1 -15 -4z"/>
<path d="M13780 9225 c-10 -12 -9 -15 8 -15 11 0 25 7 32 15 10 12 9 15 -8 15
-11 0 -25 -7 -32 -15z"/>
<path d="M14296 9151 c-4 -7 -5 -15 -2 -18 9 -9 19 4 14 18 -4 11 -6 11 -12 0z"/>
<path d="M14320 9155 c0 -2 9 -9 20 -15 16 -9 20 -8 20 5 0 8 -9 15 -20 15
-11 0 -20 -2 -20 -5z"/>
<path d="M14150 9109 c-14 -4 -18 -8 -10 -8 13 -1 13 -2 0 -11 -19 -13 -8 -13
25 0 17 7 24 7 20 0 -3 -6 1 -10 9 -10 22 0 20 27 -1 32 -10 2 -29 1 -43 -3z"/>
<path d="M13610 9055 c-11 -13 -8 -15 20 -15 21 0 30 4 28 13 -7 18 -33 20
-48 2z"/>
<path d="M13440 9031 c0 -5 -3 -17 -7 -27 -4 -12 -3 -15 5 -10 7 4 12 1 12 -8
0 -28 22 -28 46 0 34 42 31 54 -16 54 -22 0 -40 -4 -40 -9z"/>
<path d="M13504 8949 c-3 -6 -1 -15 7 -19 14 -9 49 5 49 20 0 14 -47 13 -56
-1z"/>
<path d="M13646 8949 c-17 -11 -17 -12 5 -23 29 -15 39 -11 39 15 0 21 -15 24
-44 8z"/>
<path d="M13357 8714 c-17 -23 -17 -27 -3 -49 9 -13 16 -32 16 -40 0 -13 6
-15 33 -10 17 4 34 11 35 16 2 5 16 9 30 9 15 0 34 5 42 10 11 7 7 10 -18 10
-18 0 -31 4 -28 8 2 4 -2 22 -11 40 -13 26 -21 32 -47 32 -21 -1 -37 -8 -49
-26z"/>
<path d="M13110 8584 c-12 -4 -15 -29 -17 -135 -1 -72 -6 -136 -11 -143 -17
-21 -21 -56 -7 -56 7 0 25 -16 40 -36 15 -19 29 -33 32 -31 2 3 19 0 36 -5 18
-6 70 -11 117 -12 l85 -1 5 -35 c3 -19 10 -35 15 -36 6 0 17 -4 25 -7 8 -4 34
-11 58 -16 35 -7 44 -6 48 5 13 45 17 50 21 27 5 -24 19 -31 25 -12 2 6 13 9
23 7 16 -4 13 -8 -17 -22 -46 -20 -49 -44 -8 -59 17 -6 30 -15 30 -19 0 -4 5
-8 10 -8 6 0 10 6 10 14 0 8 13 23 29 32 33 19 31 39 -4 48 -20 5 -22 11 -18
41 3 21 -1 42 -8 51 -9 11 -9 18 -1 26 33 33 0 49 -50 26 -22 -11 -26 -17 -21
-42 l6 -29 -54 7 c-30 3 -63 8 -74 10 -11 3 -28 5 -37 5 -36 2 -17 17 23 18
23 1 43 4 45 6 4 4 -13 58 -28 93 -5 11 -8 24 -7 30 2 5 -2 19 -9 32 -11 19
-16 21 -35 11 -12 -7 -26 -18 -30 -25 -4 -8 -17 -14 -28 -14 -11 0 -33 -7 -50
-15 -35 -18 -57 -10 -89 34 -16 24 -19 38 -14 73 7 41 35 77 61 78 7 0 16 8
22 17 9 17 12 16 40 -5 35 -26 83 -29 102 -6 11 14 9 19 -11 35 -31 23 -49 24
-78 3 -12 -8 -22 -11 -22 -6 0 19 -54 33 -89 22 -37 -10 -51 -6 -51 16 0 14
-10 16 -40 8z"/>
<path d="M12672 8355 c-14 -22 -12 -73 3 -79 8 -3 15 -12 15 -21 0 -8 7 -15
16 -15 9 0 18 -9 21 -20 3 -11 14 -20 24 -20 14 0 19 7 19 29 0 16 3 36 6 45
4 10 1 16 -9 16 -11 0 -17 12 -19 38 -3 35 -5 37 -36 37 -19 0 -37 -4 -40 -10z"/>
<path d="M12610 8326 c0 -9 7 -16 16 -16 17 0 14 22 -4 28 -7 2 -12 -3 -12
-12z"/>
<path d="M13771 6839 c5 -11 14 -17 20 -14 15 10 10 22 -11 28 -17 4 -18 2 -9
-14z"/>
<path d="M11897 6523 c-13 -13 -7 -34 13 -41 19 -7 19 -9 4 -30 -8 -12 -26
-22 -38 -22 -13 0 -29 -7 -36 -15 -9 -11 -22 -14 -41 -10 -20 5 -30 2 -37 -11
-9 -16 -11 -15 -41 2 -23 14 -34 16 -39 7 -4 -6 -27 -13 -52 -16 -37 -3 -46
-8 -50 -28 -5 -19 -12 -24 -35 -22 -38 3 -85 -23 -85 -47 0 -15 -6 -19 -22
-17 -17 1 -22 -3 -20 -16 2 -11 -5 -28 -15 -39 -18 -21 -18 -21 10 -14 16 4
27 2 27 -4 0 -5 6 -10 14 -10 7 0 25 -9 39 -20 16 -13 40 -20 66 -20 30 0 46
-6 63 -25 21 -22 27 -24 58 -15 19 6 49 7 66 4 20 -4 36 -1 45 9 23 23 95 28
113 8 21 -24 20 -38 -4 -46 -31 -10 -25 -41 10 -54 26 -8 30 -15 30 -46 0 -28
-5 -38 -25 -47 -14 -6 -25 -14 -25 -18 0 -7 61 -30 82 -30 28 0 46 -34 51 -97
5 -81 -25 -139 -77 -149 -20 -3 -49 -21 -72 -45 -26 -27 -44 -37 -56 -33 -36
11 -58 -5 -58 -42 0 -22 -5 -34 -14 -34 -8 0 -17 -11 -20 -25 -4 -17 -13 -25
-27 -25 -19 0 -20 -4 -14 -37 9 -51 11 -53 44 -47 20 4 30 1 34 -10 9 -24 27
-19 27 7 0 13 6 32 14 43 14 18 15 18 24 -6 8 -20 6 -29 -10 -46 -17 -19 -17
-22 -3 -28 21 -8 9 -26 -17 -26 -30 0 -12 -15 20 -16 15 -1 34 -2 43 -3 8 -1
25 -10 37 -21 21 -20 22 -20 22 -2 0 10 10 28 23 40 23 22 24 22 41 3 16 -18
15 -20 -21 -55 -21 -20 -46 -39 -55 -42 -10 -3 -21 -17 -25 -32 -10 -45 -45
-69 -99 -70 -26 -1 -50 -5 -53 -10 -3 -5 -14 -11 -24 -15 -12 -5 -16 -13 -13
-24 3 -10 -3 -31 -14 -48 -11 -16 -20 -45 -20 -62 0 -28 5 -35 36 -48 42 -17
90 -20 99 -5 9 15 33 12 53 -7 10 -10 29 -24 43 -31 27 -14 44 -51 55 -118 7
-44 -8 -66 -29 -45 -19 19 -33 12 -53 -24 -10 -19 -25 -35 -34 -35 -8 0 -24
-18 -34 -40 -18 -38 -46 -57 -65 -45 -6 3 -7 13 -4 21 4 12 1 15 -13 12 -11
-2 -19 -12 -19 -23 0 -11 -4 -25 -8 -32 -4 -7 4 -20 19 -32 30 -24 40 -26 50
-10 3 6 17 8 29 5 13 -3 27 -2 30 4 7 12 45 13 45 2 0 -5 12 -14 26 -21 26
-12 46 -5 66 24 9 12 64 -20 61 -34 -2 -6 2 -22 7 -36 8 -22 13 -24 30 -15 12
6 29 8 40 5 10 -3 21 -2 24 3 7 12 66 13 67 1 1 -5 2 -13 3 -18 0 -5 4 -12 7
-16 9 -8 -1 -45 -12 -46 -5 -1 -13 -3 -19 -4 -5 -1 -20 -3 -33 -4 -13 0 -32
-9 -43 -18 -19 -14 -20 -21 -11 -57 11 -45 21 -56 55 -56 27 0 29 16 2 32 -19
12 -28 38 -12 38 4 -1 18 -7 31 -14 26 -14 39 -56 18 -56 -6 0 -4 -5 6 -11 21
-12 22 -29 3 -29 -8 0 -17 -6 -20 -12 -5 -10 -7 -10 -12 0 -16 34 -38 -5 -24
-42 6 -16 5 -26 -1 -28 -6 -2 -7 -11 -4 -21 6 -13 19 -17 60 -17 60 0 109 -15
100 -30 -3 -5 -17 -10 -30 -10 -13 0 -27 -4 -30 -10 -3 -6 -17 -10 -31 -10
-14 0 -22 4 -19 10 4 6 -7 10 -25 10 -27 0 -30 -3 -24 -24 5 -21 0 -27 -31
-41 -32 -16 -35 -21 -30 -46 6 -25 3 -30 -19 -39 -14 -5 -26 -14 -26 -20 0 -6
-4 -9 -9 -5 -5 3 -12 -3 -15 -13 -9 -27 3 -105 17 -114 17 -11 39 -10 32 2 -6
10 45 40 68 40 20 0 57 43 66 76 9 36 44 43 80 16 15 -10 37 -22 49 -26 31
-10 55 -69 40 -101 -8 -18 -8 -28 1 -39 10 -12 8 -19 -13 -37 -14 -13 -26 -29
-26 -36 0 -7 -4 -13 -10 -13 -5 0 -10 6 -10 13 0 8 -8 21 -18 30 -16 15 -21
14 -59 -17 l-42 -33 27 -20 c23 -17 25 -22 13 -37 -7 -9 -20 -16 -27 -16 -8 0
-14 -4 -14 -10 0 -5 13 -10 28 -10 16 0 37 -7 48 -15 25 -19 34 -19 34 0 0 10
11 15 35 15 19 0 35 -4 35 -10 0 -13 -34 -30 -63 -30 -14 0 -28 -7 -31 -16 -8
-22 -9 -20 23 -34 16 -6 37 -20 47 -31 23 -26 47 -25 39 1 -5 16 -2 20 14 20
22 0 31 -35 11 -42 -16 -5 57 -78 79 -78 12 0 21 -4 21 -10 0 -5 7 -7 15 -4 8
4 27 -1 41 -11 21 -13 25 -22 21 -44 -3 -16 -1 -33 5 -39 9 -9 6 -17 -10 -32
-12 -12 -22 -25 -22 -30 0 -6 -7 -10 -15 -10 -8 0 -15 5 -15 10 0 6 -4 10 -10
10 -5 0 -10 -9 -10 -20 0 -21 12 -25 67 -21 29 2 35 -2 50 -34 17 -36 17 -37
-7 -55 -17 -13 -30 -16 -49 -9 -14 5 -38 10 -53 12 -16 2 -35 12 -43 22 -14
19 -14 19 -15 -7 0 -15 -7 -33 -15 -42 -8 -8 -15 -19 -15 -25 0 -13 -64 -25
-82 -16 -7 4 0 -5 16 -20 20 -19 32 -23 39 -16 17 17 27 13 27 -9 0 -11 7 -20
15 -20 8 0 25 -6 36 -12 15 -9 23 -10 26 -2 5 16 83 -6 83 -24 0 -7 -3 -12 -7
-10 -5 2 -21 10 -36 18 -20 10 -31 11 -35 3 -4 -6 -16 -12 -26 -14 -22 -4 -36
-31 -15 -28 41 5 55 -15 19 -26 -11 -3 -20 -13 -20 -21 0 -8 -7 -17 -15 -20
-11 -5 -12 -11 -5 -24 6 -10 7 -26 4 -35 -4 -10 -1 -21 7 -27 9 -6 0 -7 -28
-3 -28 5 -43 3 -43 -4 0 -6 -9 -11 -20 -11 -13 0 -20 -7 -20 -20 0 -13 7 -20
20 -20 11 0 20 -4 20 -10 0 -5 6 -10 14 -10 25 0 38 -74 14 -83 -7 -2 -10 -8
-6 -12 5 -5 26 -3 49 4 45 14 44 14 53 -14 4 -15 -2 -24 -24 -37 -19 -11 -30
-25 -30 -40 -1 -31 -20 -53 -47 -53 -29 0 -31 -19 -2 -23 19 -3 17 -6 -16 -26
-31 -19 -44 -22 -74 -15 -59 14 -63 12 -59 -23 3 -29 6 -33 31 -31 24 2 27 -1
22 -18 -4 -11 -2 -19 5 -19 6 0 9 -4 6 -9 -3 -5 3 -11 14 -14 11 -3 23 -1 26
4 7 12 61 11 85 -1 22 -13 25 -43 5 -59 -8 -7 -42 -12 -75 -13 -34 0 -61 -4
-61 -9 0 -4 -5 -20 -10 -34 -8 -22 -13 -25 -25 -15 -20 17 -29 -23 -22 -106
l5 -65 -41 -43 -42 -42 37 -33 c20 -18 35 -38 32 -45 -8 -21 -67 -48 -94 -45
-20 3 -26 10 -28 39 -2 19 -8 40 -14 47 -5 7 -6 22 -2 35 9 25 11 33 13 48 0
5 17 12 36 16 32 6 34 8 18 20 -11 7 -33 11 -53 9 -19 -3 -57 -7 -84 -9 -27
-2 -53 -10 -58 -18 -26 -39 -28 -48 -16 -71 7 -12 13 -29 13 -37 0 -9 12 -17
30 -20 24 -4 30 -10 30 -30 0 -31 -44 -43 -51 -13 -6 21 -77 58 -93 49 -17
-11 -13 -77 5 -98 14 -14 14 -20 4 -33 -10 -12 -8 -21 14 -50 23 -30 30 -34
47 -24 29 15 111 -6 140 -37 12 -13 26 -24 29 -24 4 0 24 14 45 30 45 36 52
36 89 6 27 -22 28 -26 17 -59 -16 -49 -37 -65 -63 -48 -15 9 -27 9 -55 0 -45
-15 -127 -8 -175 15 -39 19 -79 18 -85 0 -6 -19 78 -48 147 -51 264 -10 254
-5 245 -107 -3 -39 -8 -83 -10 -97 -4 -17 1 -34 15 -52 16 -21 19 -31 11 -46
-23 -42 0 -240 23 -202 10 16 36 14 36 -4 0 -9 -9 -15 -24 -15 -24 0 -25 -3
-24 -60 0 -33 5 -60 9 -60 17 0 9 -22 -13 -41 -35 -28 -70 -24 -93 11 -17 26
-26 30 -63 30 -34 0 -50 -6 -74 -29 -17 -16 -44 -32 -60 -35 -24 -5 -28 -10
-28 -41 0 -54 15 -75 53 -75 48 0 109 -25 129 -51 31 -41 37 -47 48 -51 6 -2
8 -11 5 -19 -4 -11 -25 -19 -58 -24 -43 -6 -48 -8 -30 -15 12 -5 26 -17 32
-28 15 -29 16 -199 1 -217 -8 -9 -8 -15 -2 -15 6 0 13 -14 17 -30 l7 -30 424
0 c413 0 424 1 436 20 17 27 41 27 33 0 -6 -18 -2 -20 33 -20 22 0 42 5 44 11
3 9 9 9 25 0 26 -13 235 -15 248 -2 6 5 24 11 40 14 l30 4 -33 8 c-18 4 -36
15 -41 24 -8 17 -6 149 4 218 4 26 2 43 -4 43 -5 0 -12 58 -15 138 -7 178 -16
262 -27 262 -5 0 -9 7 -9 15 0 8 5 15 10 15 11 0 13 80 2 95 -4 6 -16 12 -27
13 -11 2 -21 8 -23 13 -2 5 -13 9 -23 9 -12 0 -17 4 -13 11 4 6 20 8 40 4 l34
-6 0 60 c0 33 -4 62 -8 65 -4 2 -9 37 -10 78 -1 40 -7 98 -12 130 -6 31 -8 68
-4 82 5 23 3 26 -20 26 -19 0 -26 5 -26 19 0 11 -3 26 -6 34 -4 11 2 16 18 19
33 4 35 36 4 65 -14 13 -26 28 -26 33 0 6 -12 10 -26 10 -30 0 -28 20 4 35 19
8 20 15 15 75 -3 36 -10 73 -14 82 -5 9 -9 35 -9 57 0 65 -6 71 -64 71 -29 0
-56 3 -59 7 -8 7 67 43 89 43 19 0 18 54 0 69 -8 7 -12 21 -9 31 10 37 -7 150
-23 150 -19 0 -18 10 7 36 19 20 20 26 9 59 -7 22 -20 40 -31 42 -22 6 -25 19
-5 26 7 3 16 28 20 61 5 43 2 67 -15 110 -23 64 -32 72 -52 51 -20 -19 -47
-19 -47 -1 0 8 4 16 8 18 5 2 11 19 15 40 5 35 4 36 -31 43 -47 9 -66 23 -52
40 8 9 6 14 -6 19 -16 6 -15 8 2 21 22 16 104 20 104 5 0 -5 5 -10 10 -10 6 0
10 7 10 15 0 8 5 15 10 15 6 0 10 7 10 15 0 11 -13 15 -54 15 l-54 0 24 46
c29 55 32 104 7 104 -10 0 -29 6 -43 13 -21 11 -30 10 -53 -1 -16 -8 -31 -20
-34 -28 -3 -9 -21 -14 -49 -14 -24 0 -44 -4 -44 -8 0 -5 -22 -10 -50 -11 -56
-2 -61 5 -26 38 16 15 34 22 54 20 16 -2 36 2 44 8 8 7 34 14 59 16 25 2 51 7
57 11 7 4 17 4 22 1 6 -3 10 -2 10 3 0 5 9 19 20 32 11 13 20 30 20 40 0 9 5
21 11 27 17 17 -14 61 -46 69 -25 6 -35 37 -15 49 6 3 10 24 10 45 0 22 5 40
13 43 8 3 6 10 -7 26 -20 22 -20 22 2 28 12 3 22 10 22 15 0 5 6 6 13 2 6 -4
-5 9 -25 29 -22 22 -43 35 -52 31 -9 -3 -19 3 -26 17 -10 18 -9 24 6 33 11 6
35 13 54 16 36 5 58 40 26 40 -9 0 -16 5 -16 10 0 6 8 10 18 10 34 0 53 33 50
86 -3 41 -6 49 -25 52 -29 4 -37 29 -13 37 28 9 35 47 15 86 -19 36 -26 121
-13 158 8 22 7 23 -21 18 -41 -8 -104 10 -97 29 4 11 -4 14 -32 14 -76 0 -80
41 -5 53 41 7 63 -5 63 -34 0 -21 34 -26 59 -10 12 8 13 16 4 46 -9 27 -9 42
-1 55 9 14 8 28 -5 61 -27 69 -31 73 -56 57 -20 -12 -24 -10 -42 11 -11 13
-17 32 -14 41 5 16 -13 32 -39 34 -22 2 -15 26 8 32 18 4 28 16 34 38 6 21 15
32 31 34 20 3 22 8 17 40 -3 20 -5 38 -6 40 0 2 -13 1 -29 -3 -22 -5 -32 -2
-39 11 -16 29 -2 53 34 60 35 6 43 21 22 42 -21 21 -58 15 -58 -9 0 -25 -23
-20 -28 6 -2 10 0 15 6 11 6 -3 20 11 33 32 25 41 27 102 4 115 -20 11 -19 37
1 37 13 0 15 7 11 30 -4 17 -3 30 2 30 14 0 34 98 28 140 -3 28 -1 40 9 44 10
4 14 25 14 81 0 88 17 152 42 158 10 3 18 0 18 -5 0 -15 31 -37 53 -38 9 0 17
5 17 11 0 6 19 9 46 7 34 -2 50 -8 58 -22 6 -11 18 -28 27 -39 15 -16 20 -17
38 -5 12 7 21 16 21 20 0 4 11 7 24 6 24 -2 116 41 116 54 0 5 6 8 13 8 8 0
27 6 43 14 40 19 114 29 114 16 0 -6 4 -8 10 -5 11 7 60 -38 60 -55 0 -5 7
-10 15 -10 8 0 15 -4 15 -10 0 -5 13 -10 30 -10 19 0 34 -7 42 -20 7 -11 21
-20 30 -20 10 0 18 -5 18 -11 0 -6 8 -8 19 -4 12 4 23 0 28 -10 8 -13 16 -14
54 -6 24 6 83 11 130 11 47 0 89 3 93 7 10 10 39 13 51 4 5 -4 41 -8 79 -10
76 -3 86 3 86 56 0 43 -10 69 -21 52 -12 -20 -169 19 -169 43 0 14 85 9 116
-6 16 -8 38 -14 49 -12 18 3 20 11 22 97 0 52 -1 86 -4 76 -3 -13 -11 -17 -24
-14 -10 3 -19 2 -19 -2 0 -4 -16 -13 -35 -21 -19 -8 -35 -17 -35 -21 0 -7 -63
-18 -117 -20 -18 -1 -33 -5 -33 -10 0 -4 -39 -6 -87 -5 -65 2 -99 8 -132 24
-54 26 -139 30 -147 7 -9 -21 -37 -19 -52 5 -10 17 -10 21 3 26 11 5 15 21 15
59 0 56 -8 68 -65 95 -16 8 -33 19 -37 25 -13 17 -9 45 7 45 8 0 15 7 15 15 0
22 -30 6 -41 -22 -5 -13 -15 -23 -21 -22 -7 1 -21 -1 -30 -5 -9 -4 -33 -3 -53
4 -37 12 -125 6 -158 -12 -16 -8 -15 -11 12 -33 16 -14 41 -25 55 -25 14 0 35
-9 46 -20 l20 -20 -46 0 c-61 0 -122 33 -126 69 -3 22 -7 26 -35 24 -40 -4
-134 45 -190 98 -22 21 -49 39 -60 39 -24 1 -46 19 -60 52 -10 23 -9 30 8 51
21 28 26 87 7 87 -7 0 -3 8 8 18 12 9 25 27 29 39 3 13 17 26 31 29 20 5 24
12 22 32 -2 17 2 26 13 27 10 2 26 12 38 24 12 12 28 21 37 21 11 0 14 6 9 20
-4 11 -2 20 4 20 6 0 11 7 11 16 0 9 -7 14 -17 12 -9 -2 -16 -7 -15 -11 2 -4
-12 -21 -30 -38 -29 -26 -38 -30 -72 -24 -50 7 -55 11 -49 35 3 12 14 20 27
21 18 0 16 3 -9 14 -22 9 -30 21 -32 40 -2 33 -5 36 -57 65 -36 20 -41 20 -51
6 -7 -9 -14 -13 -17 -11 -3 3 -17 1 -32 -4 -17 -7 -26 -7 -26 -1 0 6 5 10 10
10 21 0 9 31 -16 40 -19 8 -29 6 -40 -4 -17 -18 -18 -33 -1 -39 6 -3 -5 -6
-25 -6 -20 -1 -43 -4 -52 -7 -11 -4 -16 -1 -16 10 0 18 -16 21 -26 5 -3 -6 0
-15 7 -20 12 -8 11 -11 -3 -20 -30 -17 -20 -29 25 -29 54 0 62 -7 62 -53 0
-42 -12 -49 -21 -13 -6 23 -38 41 -56 30 -5 -3 -4 -12 3 -20 9 -11 8 -14 -5
-14 -24 0 -46 24 -46 49 0 25 2 25 -43 6 -40 -17 -51 -9 -41 29 4 16 11 23 20
19 22 -8 44 4 38 22 -7 16 -44 21 -44 5 0 -5 -9 -10 -19 -10 -11 0 -23 5 -26
10 -3 6 -22 10 -42 10 -34 0 -35 1 -29 33 6 36 1 49 -31 66 -20 10 -23 9 -23
-5 0 -13 -7 -15 -36 -10 -19 4 -44 16 -55 27 -20 20 -22 20 -40 3 -10 -9 -19
-25 -19 -35 0 -26 -28 -13 -32 14 -2 14 -9 20 -18 17 -24 -7 -83 -5 -105 4
-19 9 -19 9 2 15 21 6 21 8 8 31 -8 14 -20 37 -27 53 -13 27 -32 35 -43 17 -4
-7 -12 -7 -25 0 -22 12 -25 12 -33 3z m90 -98 c-15 -32 -27 -32 -27 0 0 18 5
25 19 25 17 0 18 -3 8 -25z m273 -59 c0 -3 -4 -8 -10 -11 -5 -3 -10 -1 -10 4
0 6 5 11 10 11 6 0 10 -2 10 -4z m-262 -138 c2 -5 10 -3 18 3 11 9 21 9 40 0
14 -6 38 -11 54 -11 16 0 33 -6 37 -13 4 -8 16 -16 25 -20 30 -11 9 -35 -33
-39 -46 -4 -79 6 -79 24 0 25 -54 37 -91 21 -23 -10 -39 -11 -49 -5 -9 5 -31
13 -50 17 -39 8 -55 25 -37 37 16 10 161 -2 165 -14z m221 -234 c2 -2 -12 -4
-33 -4 -22 0 -35 4 -31 10 5 9 52 4 64 -6z m-119 -215 c0 -5 -9 -9 -20 -9 -22
0 -27 16 -7 23 15 5 27 -1 27 -14z m112 -84 c-4 -16 -54 -26 -69 -13 -24 20
-13 29 30 26 23 -2 41 -7 39 -13z m841 -40 c13 -9 17 -20 12 -35 -6 -20 -12
-22 -49 -17 -43 6 -106 33 -106 46 0 16 15 21 69 21 32 0 64 -7 74 -15z m515
-74 c4 -27 -14 -52 -34 -44 -17 6 -19 59 -1 66 20 9 32 2 35 -22z m-478 -27
c0 -8 -4 -12 -10 -9 -5 3 -10 10 -10 16 0 5 5 9 10 9 6 0 10 -7 10 -16z m-690
-59 c47 -24 39 -45 -16 -45 -55 0 -84 25 -55 47 21 16 36 16 71 -2z m1070 -4
c14 -4 20 -9 15 -13 -6 -3 -23 1 -40 8 -32 14 -17 17 25 5z m180 -41 c0 -11
-4 -20 -9 -20 -14 0 -23 18 -16 30 10 17 25 11 25 -10z m-607 -35 c1 -5 -6
-11 -15 -13 -11 -2 -18 3 -18 13 0 17 30 18 33 0z m156 -61 c13 -16 25 -23 33
-18 9 6 9 3 -1 -9 -8 -10 -16 -15 -19 -13 -2 3 -19 -6 -37 -19 -17 -14 -41
-25 -53 -25 -11 0 -23 -6 -25 -12 -4 -10 -8 -9 -16 2 -15 21 -15 21 29 55 21
17 41 38 43 48 7 24 22 21 46 -9z m409 14 c-3 -7 -15 -15 -28 -16 -21 -3 -22
-2 -11 12 16 19 44 21 39 4z m-78 -8 c0 -11 -29 -17 -52 -12 -30 7 -20 19 17
20 19 1 35 -3 35 -8z m-96 -46 c7 -17 -9 -44 -26 -44 -5 0 -27 -9 -48 -19 -33
-16 -44 -17 -65 -8 -27 13 -34 48 -12 72 18 22 143 20 151 -1z m409 -108 c15
-12 24 -36 13 -36 -20 0 -56 22 -56 35 0 18 19 19 43 1z m362 -4 c14 -10 17
-32 5 -32 -5 0 -10 5 -10 10 0 6 -16 10 -36 10 -21 0 -33 4 -29 10 7 12 55 13
70 2z m-1614 -128 c10 -13 10 -17 -2 -25 -32 -20 -67 -4 -55 26 7 20 40 19 57
-1z m-648 -141 c-7 -2 -19 -2 -25 0 -7 3 -2 5 12 5 14 0 19 -2 13 -5z m322
-263 c33 -13 23 -32 -13 -24 -46 10 -53 14 -47 24 8 13 27 13 60 0z m125 -10
c-8 -5 -28 -10 -45 -10 -23 0 -27 3 -15 10 8 5 29 10 45 10 23 0 27 -3 15 -10z
m360 -149 c0 -12 -28 -22 -34 -12 -3 5 -3 11 1 15 9 9 33 7 33 -3z m-400 -25
c0 -3 -4 -8 -10 -11 -5 -3 -10 -1 -10 4 0 6 5 11 10 11 6 0 10 -2 10 -4z m218
-38 c-5 -15 -42 -22 -66 -13 -14 5 -14 7 -2 15 23 15 72 12 68 -2z m42 -48
c11 -7 12 -10 2 -10 -7 0 -20 -7 -28 -15 -19 -18 -38 -20 -27 -2 4 6 8 15 9
20 1 4 2 9 3 12 2 8 25 5 41 -5z m-230 -169 c14 -27 0 -34 -55 -25 -47 7 -62
24 -21 24 14 0 28 5 31 10 10 16 34 11 45 -9z m510 -31 c0 -5 -9 -10 -20 -10
-11 0 -20 5 -20 10 0 6 9 10 20 10 11 0 20 -4 20 -10z m-194 -85 c13 -13 11
-17 -21 -32 -41 -20 -68 -10 -73 26 -3 19 1 21 38 21 23 0 48 -6 56 -15z
m-229 -45 c2 -23 -14 -25 -52 -8 -36 16 -31 28 13 28 31 0 38 -4 39 -20z m363
-55 c10 -12 7 -17 -14 -26 -31 -14 -53 -1 -43 25 8 20 41 21 57 1z m-336 -111
c3 -8 1 -14 -4 -14 -5 0 -12 -11 -16 -25 -6 -26 -18 -32 -29 -15 -4 6 1 22 9
35 10 15 12 25 6 25 -6 0 -9 4 -5 10 7 12 32 2 39 -16z m69 20 c9 -9 -4 -34
-18 -34 -14 0 -27 25 -18 34 4 3 12 6 18 6 6 0 14 -3 18 -6z m343 -35 c3 -6
19 -9 35 -7 36 6 57 -15 39 -37 -17 -21 -37 -19 -50 5 -6 11 -19 20 -29 20
-10 0 -24 7 -31 15 -10 13 -9 15 8 15 12 0 24 -5 28 -11z m-430 -96 c-10 -10
-19 5 -10 18 6 11 8 11 12 0 2 -7 1 -15 -2 -18z m544 0 c11 -10 20 -28 20 -40
0 -18 -6 -23 -25 -23 -14 0 -25 4 -25 9 0 5 -7 17 -16 25 -12 13 -13 18 -2 30
17 20 24 19 48 -1z m-140 -19 c0 -8 -5 -12 -10 -9 -6 4 -8 11 -5 16 9 14 15
11 15 -7z m-390 -9 c0 -8 -7 -15 -15 -15 -26 0 -18 20 13 29 1 1 2 -6 2 -14z
m240 -28 c40 -32 -4 -63 -72 -52 -40 7 -50 29 -26 53 15 15 79 15 98 -1z
m-273 -3 c-3 -3 -12 -4 -19 -1 -8 3 -5 6 6 6 11 1 17 -2 13 -5z m-50 -99 c5
-16 -14 -38 -26 -31 -18 12 -13 48 6 44 9 -2 18 -7 20 -13z m149 6 c5 -6 26
-12 46 -14 47 -5 58 -15 35 -32 -17 -12 -16 -15 12 -44 30 -31 32 -55 5 -65
-7 -3 -18 3 -24 12 -8 12 -13 14 -16 5 -3 -7 -10 -13 -16 -13 -10 0 -7 36 7
72 5 13 -2 17 -37 23 -58 10 -91 32 -75 50 14 16 49 19 63 6z m-51 -198 c12
-16 18 -16 61 -5 43 12 50 11 73 -6 35 -26 37 -40 5 -53 -20 -7 -35 -7 -52 0
-14 7 -30 8 -40 2 -9 -4 -36 -11 -58 -15 -52 -7 -64 12 -37 61 20 37 30 41 48
16z m361 -42 c-4 -5 -1 -11 6 -13 6 -2 9 -9 5 -15 -10 -15 -87 5 -87 23 0 10
13 14 41 14 22 0 38 -4 35 -9z m124 -176 c0 -14 -4 -25 -10 -25 -11 0 -14 33
-3 43 11 11 13 8 13 -18z m-324 -36 c3 -6 0 -15 -7 -20 -22 -14 -29 -11 -29
11 0 21 24 27 36 9z m229 -95 c28 -18 33 -49 9 -58 -10 -4 -14 -12 -10 -22 7
-19 -19 -43 -46 -44 -23 0 -23 18 -1 43 17 18 17 20 -5 37 -53 43 -5 82 53 44z
m45 -88 c0 -3 -4 -8 -10 -11 -5 -3 -10 -1 -10 4 0 6 5 11 10 11 6 0 10 -2 10
-4z m70 -11 c0 -8 -4 -15 -10 -15 -5 0 -10 7 -10 15 0 8 5 15 10 15 6 0 10 -7
10 -15z m-205 -224 c-3 -6 -14 -10 -23 -10 -15 1 -15 2 1 6 9 2 17 9 17 15 0
6 3 9 6 5 3 -3 3 -10 -1 -16z m-275 -11 c0 -5 -7 -10 -15 -10 -8 0 -15 5 -15
10 0 6 7 10 15 10 8 0 15 -4 15 -10z m445 -40 c14 -23 -3 -36 -44 -32 -40 4
-56 24 -28 35 22 10 66 7 72 -3z m-415 -76 c0 -8 -5 -12 -10 -9 -6 4 -8 11 -5
16 9 14 15 11 15 -7z m-40 -44 c0 -5 -9 -10 -20 -10 -11 0 -20 5 -20 10 0 6 9
10 20 10 11 0 20 -4 20 -10z m40 -44 c0 -17 -22 -26 -63 -25 l-32 1 28 11 c15
6 27 14 27 19 0 4 9 8 20 8 11 0 20 -6 20 -14z m270 -32 c0 -7 -18 -18 -40
-24 -22 -6 -46 -20 -53 -30 -6 -11 -19 -20 -29 -20 -9 0 -20 -4 -23 -10 -3 -5
-27 -10 -52 -10 -37 0 -50 -5 -74 -31 -16 -17 -27 -35 -24 -39 6 -10 -15 -60
-25 -60 -19 0 -18 16 2 32 19 15 20 18 6 18 -11 0 -18 8 -18 20 0 11 5 20 10
20 6 0 10 9 10 20 0 11 -4 20 -9 20 -5 0 -11 9 -14 19 -7 26 12 33 103 37 94
3 134 17 127 44 -4 16 1 19 37 22 44 3 66 -6 66 -28z m130 -64 c0 -5 -13 -10
-29 -10 -17 0 -33 5 -36 10 -4 6 8 10 29 10 20 0 36 -4 36 -10z m-11 -91 c-20
-12 -26 -11 -33 6 -8 21 26 38 38 18 5 -10 4 -18 -5 -24z m-610 -213 c-10 -12
-14 -8 -24 22 -7 23 -7 24 13 5 10 -10 15 -22 11 -27z m708 8 c2 -7 -8 -9 -27
-6 -16 2 -27 8 -24 14 8 12 46 6 51 -8z m30 -145 l28 -11 -45 -14 c-52 -15
-79 -3 -46 22 24 17 27 17 63 3z m-647 -18 c0 -5 -6 -16 -12 -23 -7 -8 -18
-22 -24 -33 -14 -25 -71 -40 -90 -24 -34 28 -2 59 60 59 25 0 36 4 36 15 0 8
7 15 15 15 8 0 15 -4 15 -9z m170 -93 c-24 -19 -50 -21 -52 -3 -1 14 42 34 60
27 12 -4 11 -9 -8 -24z m380 -48 c0 -5 -9 -10 -20 -10 -11 0 -20 5 -20 10 0 6
9 10 20 10 11 0 20 -4 20 -10z m-457 -6 c13 -13 -14 -44 -39 -44 -28 0 -44 28
-23 41 16 10 53 12 62 3z m-103 -153 c0 -6 -4 -13 -10 -16 -5 -3 -10 -14 -10
-25 0 -20 -19 -30 -55 -30 -31 0 -40 15 -20 32 9 7 24 21 33 30 18 18 62 24
62 9z m435 -495 c0 -22 -14 -29 -34 -17 -19 12 -6 43 16 39 10 -2 18 -12 18
-22z m-365 -1 c0 -8 -4 -15 -9 -15 -13 0 -22 16 -14 24 11 11 23 6 23 -9z
m745 -25 c10 -16 -14 -40 -41 -40 -29 0 -40 16 -24 35 14 17 56 20 65 5z
m-725 -21 c0 -13 -61 -79 -72 -79 -14 0 -8 41 10 65 17 24 62 34 62 14z m-38
-131 c-10 -10 -15 -10 -22 2 -6 9 -5 17 3 22 18 11 33 -10 19 -24z m132 -57
c7 -11 -22 -23 -35 -15 -5 3 -7 10 -4 15 8 12 32 12 39 0z m289 -97 c9 -9 -19
-34 -37 -34 -9 0 -16 8 -16 20 0 14 7 20 23 20 13 0 26 -3 30 -6z m-753 -319
c0 -8 -9 -15 -20 -15 -11 0 -20 7 -20 15 0 8 9 15 20 15 11 0 20 -7 20 -15z
m910 -55 c0 -5 -5 -10 -11 -10 -5 0 -7 5 -4 10 3 6 8 10 11 10 2 0 4 -4 4 -10z
m-410 -34 c18 -1 26 -7 28 -25 5 -35 -12 -47 -44 -30 -21 11 -28 11 -31 2 -3
-7 -14 -13 -25 -13 -17 0 -19 4 -14 26 9 35 28 55 46 48 8 -4 26 -7 40 -8z
m-50 -117 c0 -12 -7 -19 -20 -19 -21 0 -24 8 -14 34 8 20 34 9 34 -15z m-265
-89 c0 -17 -34 -24 -54 -11 -7 5 -10 14 -6 20 10 17 60 9 60 -9z m763 -102
c-2 -7 -11 -19 -21 -27 -22 -16 -43 -1 -34 23 8 19 58 22 55 4z m-438 -22 c0
-2 -7 -7 -16 -10 -8 -3 -12 -2 -9 4 6 10 25 14 25 6z m70 -6 c0 -5 -4 -10 -9
-10 -5 0 -16 -3 -25 -6 -11 -4 -16 -1 -16 10 0 10 9 16 25 16 14 0 25 -4 25
-10z m98 -12 c7 -7 12 -23 12 -35 0 -21 -3 -22 -20 -13 -12 6 -20 21 -20 35 0
27 9 32 28 13z"/>
<path d="M12297 6436 c-6 -15 1 -26 15 -26 4 0 8 9 8 20 0 23 -15 27 -23 6z"/>
<path d="M11485 6380 c3 -5 8 -10 11 -10 2 0 4 5 4 10 0 6 -5 10 -11 10 -5 0
-7 -4 -4 -10z"/>
<path d="M13233 6305 c-9 -10 -9 -15 -1 -17 8 -3 8 -13 -1 -38 -10 -30 -9 -38
6 -58 20 -27 39 -26 36 0 -2 11 2 15 11 12 18 -7 30 38 13 51 -14 11 -31 45
-29 58 3 12 -22 7 -35 -8z"/>
<path d="M13130 6220 c0 -5 5 -10 11 -10 5 0 7 5 4 10 -3 6 -8 10 -11 10 -2 0
-4 -4 -4 -10z"/>
<path d="M10700 6095 c0 -8 5 -15 10 -15 6 0 10 7 10 15 0 8 -4 15 -10 15 -5
0 -10 -7 -10 -15z"/>
<path d="M10727 6081 c-15 -34 -13 -61 3 -61 5 0 15 -3 24 -6 21 -8 21 40 1
76 l-14 25 -14 -34z"/>
<path d="M13135 5710 c22 -24 50 -27 41 -4 -3 9 -6 18 -6 20 0 2 -12 4 -27 4
-25 0 -26 0 -8 -20z"/>
<path d="M13560 5714 c0 -9 5 -14 12 -12 18 6 21 28 4 28 -9 0 -16 -7 -16 -16z"/>
<path d="M13427 5696 c-8 -20 2 -26 40 -26 37 0 43 14 14 30 -27 14 -48 13
-54 -4z"/>
<path d="M13355 5680 c3 -5 12 -10 20 -10 8 0 17 5 20 10 4 6 -5 10 -20 10
-15 0 -24 -4 -20 -10z"/>
<path d="M13230 5660 c0 -5 7 -10 16 -10 8 0 12 5 9 10 -3 6 -10 10 -16 10 -5
0 -9 -4 -9 -10z"/>
<path d="M13810 5645 c0 -8 5 -15 11 -15 5 0 8 4 5 9 -4 5 0 12 6 14 8 3 6 6
-4 6 -10 1 -18 -6 -18 -14z"/>
<path d="M9487 5623 c-19 -20 -151 -46 -182 -36 -11 3 -23 11 -27 16 -9 15
-48 -20 -42 -37 7 -17 -46 -40 -60 -26 -7 7 -5 10 7 10 9 0 17 7 17 15 0 18
-16 20 -26 4 -4 -7 -21 -9 -46 -5 -27 4 -40 2 -44 -7 -3 -8 -17 -11 -39 -9
-45 5 -85 -5 -85 -21 0 -9 -10 -12 -29 -9 -22 3 -32 -1 -40 -17 -7 -12 -20
-21 -31 -21 -18 0 -18 -2 -3 -55 9 -31 12 -62 8 -72 -5 -10 -7 -24 -6 -31 3
-21 -25 -24 -64 -8 -21 9 -44 16 -52 16 -16 0 -83 -51 -83 -63 0 -4 -9 -18
-20 -30 -14 -14 -19 -30 -15 -44 3 -13 2 -23 -3 -23 -5 0 -14 -12 -21 -26 -10
-22 -9 -28 6 -40 18 -13 47 -18 91 -14 13 1 33 -8 43 -19 15 -16 24 -19 38
-11 13 6 29 6 51 -1 23 -9 34 -9 43 0 16 16 63 13 82 -5 13 -13 18 -14 31 -3
13 11 18 10 25 -4 6 -9 20 -17 32 -17 13 0 28 -5 34 -11 6 -6 24 -12 40 -13
39 -4 53 -13 53 -36 0 -24 34 -43 61 -35 13 4 19 2 17 -7 -2 -7 5 -12 15 -12
9 1 17 -2 17 -7 0 -6 7 -6 18 0 11 6 24 6 32 1 16 -10 59 -3 75 11 13 12 45
11 45 -1 0 -12 37 -13 44 -1 3 5 24 7 45 4 37 -5 43 -2 85 41 25 25 53 46 61
46 26 0 16 18 -16 29 -38 13 -66 14 -71 3 -1 -5 -20 -7 -40 -4 -52 6 -50 36 4
80 32 26 49 32 87 32 41 0 49 -4 62 -27 8 -16 14 -43 13 -60 -2 -29 1 -33 21
-33 13 0 27 -4 30 -10 12 -19 33 -10 38 17 6 31 -3 40 -45 50 -28 6 -38 28
-16 35 6 2 11 18 11 36 0 20 5 32 14 32 7 0 13 -5 13 -11 0 -8 14 -9 44 -5 41
6 44 5 39 -12 -5 -21 12 -39 22 -22 3 5 19 10 34 10 33 0 51 16 51 47 0 13 5
23 11 23 6 0 9 11 7 24 -1 13 3 30 10 39 11 13 9 19 -13 41 -15 15 -30 24 -34
21 -5 -2 -17 5 -27 16 -13 15 -26 19 -45 15 -36 -7 -49 10 -51 66 -2 39 -6 47
-29 55 -15 6 -33 7 -42 2 -11 -7 -22 1 -43 29 -15 20 -29 39 -31 42 -2 2 -8
-2 -13 -10 -7 -12 -12 -12 -22 -2 -6 6 -22 12 -35 12 -13 0 -23 4 -23 10 0 5
-16 12 -36 16 -24 4 -38 13 -41 25 -7 23 -14 24 -36 2z m-142 -73 c18 -20 17
-20 -13 -20 -34 0 -35 1 -26 24 8 21 17 20 39 -4z m60 10 c-3 -5 -10 -10 -16
-10 -5 0 -9 5 -9 10 0 6 7 10 16 10 8 0 12 -4 9 -10z m89 -116 c15 -6 15 -8
-1 -20 -24 -18 -53 -18 -53 0 0 21 27 31 54 20z m-89 -77 c16 -6 41 -10 56 -9
19 2 31 -4 43 -23 20 -30 14 -45 -18 -45 -13 0 -29 -6 -35 -14 -8 -10 -24 -12
-51 -9 -43 6 -49 0 -25 -23 22 -23 19 -47 -5 -41 -10 3 -24 -1 -30 -8 -31 -37
-145 -17 -170 31 -9 17 -22 24 -42 24 -20 0 -28 5 -28 18 0 25 19 42 47 42 13
0 23 5 23 10 0 6 8 10 18 11 11 1 9 4 -8 9 -24 8 -24 8 5 9 17 1 46 9 65 20
37 20 100 19 155 -2z m595 -72 c0 -9 -6 -12 -15 -9 -8 4 -12 10 -9 15 8 14 24
10 24 -6z m-992 -97 c9 -13 27 -18 58 -18 24 0 44 -5 44 -10 0 -6 -10 -8 -24
-4 -18 4 -26 1 -30 -13 -3 -10 -21 -28 -40 -41 -29 -20 -43 -22 -99 -19 -36 2
-70 0 -74 -4 -5 -5 -18 -1 -29 8 -10 10 -29 17 -42 15 -21 -3 -22 -1 -12 17 6
12 17 21 25 21 8 0 16 5 16 10 2 14 5 23 13 42 11 24 175 21 194 -4z"/>
<path d="M13700 5595 c0 -30 20 -33 37 -6 13 22 8 31 -19 31 -13 0 -18 -7 -18
-25z"/>
<path d="M8480 5559 c0 -17 3 -18 20 -9 11 6 20 12 20 14 0 2 -9 6 -20 9 -15
4 -20 0 -20 -14z"/>
<path d="M8583 5529 c-6 -6 -9 -18 -6 -25 3 -8 0 -14 -6 -14 -6 0 -11 -14 -11
-31 0 -26 3 -29 20 -24 10 3 29 1 41 -5 19 -11 20 -10 14 9 -5 18 -2 21 22 22
15 0 37 4 48 9 14 5 29 1 53 -17 37 -27 51 -24 45 10 -4 20 -14 26 -60 37 -35
7 -58 8 -62 3 -3 -6 -25 -13 -48 -17 -42 -6 -43 -6 -33 20 6 14 10 27 10 30 0
8 -16 4 -27 -7z"/>
<path d="M14151 5506 l-23 -13 22 -21 c13 -12 28 -18 34 -14 6 3 17 7 25 7 20
0 26 25 6 25 -11 0 -15 5 -11 15 7 19 -20 19 -53 1z"/>
<path d="M8302 5478 c-17 -17 -15 -28 4 -28 11 0 15 -8 12 -27 -1 -16 -7 -31
-13 -35 -5 -4 0 -8 13 -8 12 0 22 4 22 10 0 5 12 21 28 35 l27 26 -24 20 c-27
22 -52 24 -69 7z"/>
<path d="M14058 5473 c-16 -2 -28 -9 -28 -14 0 -15 47 -10 54 6 3 8 4 14 3 14
-1 -1 -14 -4 -29 -6z"/>
<path d="M9846 5461 c-3 -5 1 -12 10 -15 20 -8 29 -1 19 13 -8 13 -22 14 -29
2z"/>
<path d="M8222 5378 c3 -7 13 -15 22 -16 12 -3 17 1 14 10 -3 7 -13 15 -22 16
-12 3 -17 -1 -14 -10z"/>
<path d="M8445 5075 c-5 -2 -37 -7 -70 -10 -54 -7 -58 -9 -35 -18 35 -15 36
-16 14 -31 -15 -12 -17 -17 -6 -28 10 -10 16 -10 32 0 17 10 20 10 20 -3 0
-11 4 -13 18 -6 9 5 32 15 50 21 56 21 34 95 -23 75z"/>
<path d="M11549 4990 c0 -14 -3 -19 -6 -12 -8 20 -22 4 -16 -19 5 -16 8 -18
15 -7 7 9 8 7 5 -8 -2 -12 -1 -28 4 -35 7 -12 9 -11 9 1 0 13 1 13 11 0 8 -11
9 -3 6 33 -5 54 -26 89 -28 47z"/>
<path d="M11467 4984 c-5 -5 21 -64 29 -64 2 0 4 13 4 29 0 26 -20 47 -33 35z"/>
<path d="M11417 4939 c-9 -6 -27 -7 -38 -4 -11 4 -26 1 -34 -5 -8 -7 -25 -10
-37 -7 -27 7 -68 -27 -68 -55 0 -11 -12 -30 -27 -44 -24 -22 -33 -24 -74 -19
-27 4 -56 2 -66 -4 -13 -6 -33 -6 -59 0 -78 19 -89 20 -111 8 -13 -7 -22 -18
-19 -25 2 -6 0 -16 -6 -22 -6 -6 -8 -22 -4 -36 7 -29 50 -46 69 -27 17 17 97
14 97 -4 0 -8 9 -15 20 -15 11 0 19 -6 18 -12 -2 -7 7 -14 20 -16 17 -3 22 1
22 17 0 42 54 15 62 -31 7 -36 -6 -58 -24 -40 -29 29 -46 13 -69 -63 -16 -49
-29 -75 -38 -75 -24 0 8 -27 40 -35 21 -5 32 -1 53 22 15 15 30 40 33 56 6 28
10 30 56 27 15 -1 33 3 40 8 7 5 19 10 27 10 73 4 115 31 132 85 6 20 17 42
25 48 14 12 18 69 5 69 -14 0 -29 85 -20 110 7 18 5 26 -7 32 -12 7 -13 13 -4
29 13 25 9 30 -14 18z"/>
<path d="M11455 4919 c-10 -15 3 -25 16 -12 7 7 7 13 1 17 -6 3 -14 1 -17 -5z"/>
<path d="M11718 4795 c-43 -37 -46 -45 -18 -45 13 0 20 7 20 20 0 15 7 20 25
20 15 0 25 6 25 14 0 27 -15 24 -52 -9z"/>
<path d="M10554 4763 c-4 -15 -14 -33 -23 -40 -10 -8 -11 -12 -4 -13 7 0 18 6
24 13 16 17 89 10 89 -9 0 -18 14 -18 29 0 10 11 8 16 -9 21 -15 5 -20 13 -17
25 4 16 1 17 -27 9 -41 -12 -66 -12 -47 0 9 6 10 11 2 15 -6 4 -13 -5 -17 -21z"/>
<path d="M10690 4781 c0 -13 32 -18 60 -9 25 7 25 8 -2 4 -16 -2 -28 1 -28 5
0 5 -7 9 -15 9 -8 0 -15 -4 -15 -9z"/>
<path d="M10408 4733 c7 -3 16 -2 19 1 4 3 -2 6 -13 5 -11 0 -14 -3 -6 -6z"/>
<path d="M10393 4702 c-19 -13 -25 -49 -8 -56 11 -4 15 1 15 19 0 14 7 25 18
27 15 3 15 4 1 10 -9 3 -20 3 -26 0z"/>
<path d="M10558 4683 c6 -2 18 -2 25 0 6 3 1 5 -13 5 -14 0 -19 -2 -12 -5z"/>
<path d="M11540 4670 c0 -11 -5 -20 -12 -20 -9 0 -9 -3 0 -12 7 -7 12 -29 12
-50 0 -27 4 -38 15 -38 19 0 49 46 39 61 -4 7 -7 24 -8 38 -1 15 -6 25 -13 24
-7 -2 -13 2 -13 7 0 6 -4 10 -10 10 -5 0 -10 -9 -10 -20z"/>
<path d="M10560 4635 c0 -9 6 -12 15 -9 8 4 12 10 9 15 -8 14 -24 10 -24 -6z"/>
<path d="M10300 4580 c0 -5 7 -10 15 -10 8 0 15 5 15 10 0 6 -7 10 -15 10 -8
0 -15 -4 -15 -10z"/>
<path d="M10310 4520 c0 -5 4 -10 9 -10 6 0 13 5 16 10 3 6 -1 10 -9 10 -9 0
-16 -4 -16 -10z"/>
<path d="M12965 4340 c-3 -5 1 -10 10 -10 9 0 13 5 10 10 -3 6 -8 10 -10 10
-2 0 -7 -4 -10 -10z"/>
<path d="M10679 4120 c-19 -11 -42 -22 -51 -26 -10 -3 -18 -10 -18 -15 0 -5
-6 -9 -12 -9 -7 0 -22 -13 -32 -29 -11 -16 -35 -35 -53 -42 -18 -7 -33 -16
-33 -21 0 -20 -140 12 -168 39 -6 6 -21 15 -32 18 -11 4 -19 9 -16 13 2 4 -1
18 -6 32 -7 20 -11 22 -19 10 -8 -13 -11 -13 -20 3 -15 26 -29 21 -29 -11 0
-16 -7 -37 -15 -48 -15 -18 -15 -18 -29 -1 -14 18 -15 18 -40 0 -14 -10 -26
-23 -26 -30 0 -17 -30 -21 -69 -9 -28 9 -35 7 -47 -9 -8 -10 -14 -25 -14 -32
0 -15 36 -18 45 -3 9 15 55 12 55 -3 0 -7 8 -19 18 -27 39 -33 132 -64 116
-39 -5 9 0 10 20 5 27 -7 56 10 56 32 0 6 17 8 40 5 33 -5 40 -3 40 11 0 19
56 23 63 4 7 -23 -5 -48 -24 -48 -22 0 -24 -7 -6 -23 19 -19 35 -15 61 16 24
28 66 37 66 14 0 -7 25 -43 55 -80 30 -36 55 -71 55 -77 0 -15 22 -12 65 10
22 11 47 20 57 20 10 0 18 4 18 9 0 5 14 14 30 20 34 11 38 26 14 52 -21 23
-10 63 16 56 10 -2 25 3 33 12 28 29 42 37 60 33 9 -2 17 -7 17 -11 0 -13 46
-30 59 -22 6 4 24 7 40 6 24 -1 27 2 23 22 -3 16 0 23 12 23 9 0 16 5 16 11 0
7 -11 8 -29 4 -24 -5 -30 -2 -35 13 -5 15 -20 21 -63 27 -39 5 -59 3 -61 -4
-5 -14 -45 -14 -58 -1 -11 11 -61 -9 -73 -29 -4 -6 -26 -7 -56 -3 -41 6 -51
11 -53 29 -2 16 5 25 30 36 43 20 87 27 94 15 3 -4 10 -6 15 -2 6 3 3 12 -8
20 -19 14 -20 14 30 18 6 1 11 -5 9 -13 -4 -20 18 -41 44 -41 33 0 38 17 10
35 -13 9 -26 25 -29 37 -4 15 -10 19 -19 12 -13 -10 -45 -10 -84 -1 -12 3 -37
-3 -55 -13z m-449 -94 c0 -16 -18 -31 -27 -22 -8 8 5 36 17 36 5 0 10 -6 10
-14z m680 -40 c0 -2 -7 -6 -15 -10 -8 -3 -15 -1 -15 4 0 6 7 10 15 10 8 0 15
-2 15 -4z m-173 -66 c2 0 3 -10 3 -23 0 -32 -42 -56 -65 -37 -15 12 -21 61 -9
72 3 4 20 2 37 -3 18 -5 33 -9 34 -9z m-119 -78 c2 -7 -3 -12 -12 -12 -9 0
-16 7 -16 16 0 17 22 14 28 -4z"/>
<path d="M9950 4100 c0 -5 4 -10 9 -10 6 0 13 5 16 10 3 6 -1 10 -9 10 -9 0
-16 -4 -16 -10z"/>
<path d="M10435 4100 c3 -5 8 -10 11 -10 2 0 4 5 4 10 0 6 -5 10 -11 10 -5 0
-7 -4 -4 -10z"/>
<path d="M9570 4040 c0 -5 4 -10 9 -10 6 0 13 5 16 10 3 6 -1 10 -9 10 -9 0
-16 -4 -16 -10z"/>
<path d="M14265 3960 c17 -11 36 -18 44 -15 8 3 11 0 8 -9 -6 -16 29 -53 41
-42 4 4 -1 13 -11 20 -9 7 -17 18 -17 24 0 17 -42 42 -70 42 l-25 0 30 -20z"/>
<path d="M9835 3959 c-11 -17 1 -21 15 -4 8 9 8 15 2 15 -6 0 -14 -5 -17 -11z"/>
<path d="M9920 3960 c0 -5 5 -10 10 -10 6 0 10 5 10 10 0 6 -4 10 -10 10 -5 0
-10 -4 -10 -10z"/>
<path d="M10876 3906 c8 -20 34 -29 34 -12 0 8 -7 17 -16 20 -22 9 -24 8 -18
-8z"/>
<path d="M11460 3850 c0 -25 41 -28 61 -3 13 15 11 16 -13 11 -16 -3 -28 -1
-28 3 0 5 -4 9 -10 9 -5 0 -10 -9 -10 -20z"/>
<path d="M10155 3840 c3 -5 8 -10 11 -10 2 0 4 5 4 10 0 6 -5 10 -11 10 -5 0
-7 -4 -4 -10z"/>
<path d="M11360 3841 c0 -5 7 -16 15 -24 13 -13 10 -14 -23 -10 -31 4 -39 1
-51 -18 -12 -20 -11 -24 10 -40 13 -10 34 -19 46 -19 12 0 24 -8 27 -18 3 -9
16 -22 28 -27 13 -6 22 -16 21 -23 -5 -20 12 -13 41 17 18 18 43 32 67 36 22
4 39 11 39 16 0 4 -6 6 -14 3 -8 -3 -23 -1 -33 5 -15 9 -13 10 15 11 17 0 32
5 32 10 0 12 -48 2 -70 -14 -32 -25 -69 -38 -87 -32 -11 5 -13 10 -7 14 27 17
25 51 -3 87 -26 33 -53 46 -53 26z"/>
<path d="M9986 3814 c-3 -7 2 -18 10 -24 11 -10 14 -9 14 3 0 9 8 17 18 19 12
3 9 6 -10 10 -17 3 -29 0 -32 -8z"/>
<path d="M10362 3801 c-12 -14 -22 -32 -22 -38 0 -21 27 -15 33 7 3 12 14 20
26 20 26 0 27 11 3 26 -15 10 -22 7 -40 -15z"/>
<path d="M10065 3812 c-10 -7 -35 -48 -35 -57 0 -3 6 -5 13 -5 8 0 18 16 24
35 6 19 10 35 10 35 -1 0 -6 -4 -12 -8z"/>
<path d="M11894 3675 c-4 -8 -13 -15 -21 -15 -8 0 -11 -5 -8 -10 4 -6 16 -8
26 -5 11 4 26 1 34 -5 12 -10 18 -10 30 0 21 17 19 23 -12 38 -35 16 -42 15
-49 -3z"/>
<path d="M12050 3633 c0 -10 4 -14 8 -8 4 6 11 13 16 18 5 4 2 7 -7 7 -10 0
-17 -8 -17 -17z"/>
<path d="M10345 3581 c3 -5 -3 -11 -12 -14 -17 -4 -17 -4 -1 -11 11 -5 23 -2
33 7 20 21 19 27 -6 27 -11 0 -18 -4 -14 -9z"/>
<path d="M10435 3540 c17 -32 12 -70 -8 -70 -7 0 -6 -4 3 -10 9 -6 24 -3 43 8
24 15 28 22 25 57 -3 39 -4 40 -41 43 l-38 3 16 -31z"/>
<path d="M10350 3449 c-11 -19 -18 -21 -71 -17 -56 4 -59 3 -59 -18 0 -13 -4
-26 -10 -29 -5 -3 -10 -13 -10 -21 0 -8 5 -14 10 -14 6 0 10 6 10 14 0 18 44
46 73 46 13 0 32 -7 43 -15 30 -23 64 -19 63 8 0 12 1 31 3 42 4 29 -37 33
-52 4z"/>
<path d="M11150 3450 c-8 -5 -11 -12 -7 -16 4 -4 15 0 24 9 18 18 8 23 -17 7z"/>
<path d="M11964 3430 c-11 -4 -32 -22 -47 -39 -14 -17 -30 -31 -35 -31 -11 0
-22 -24 -22 -49 0 -28 56 -54 101 -47 21 3 39 2 39 -3 0 -12 45 -22 64 -15 9
3 16 14 16 23 1 25 36 61 59 61 16 0 21 6 21 26 0 23 -3 25 -37 24 -58 -3
-130 2 -110 7 21 6 22 17 1 37 -17 18 -20 18 -50 6z"/>
<path d="M10980 3371 c-10 -20 -10 -71 1 -71 15 0 39 39 39 63 0 32 -24 36
-40 8z"/>
<path d="M12352 3300 c0 -14 2 -19 5 -12 2 6 2 18 0 25 -3 6 -5 1 -5 -13z"/>
<path d="M11781 3264 c0 -11 3 -14 6 -6 3 7 2 16 -1 19 -3 4 -6 -2 -5 -13z"/>
<path d="M12103 3245 c-9 -24 1 -27 15 -5 8 13 8 20 2 20 -6 0 -13 -7 -17 -15z"/>
<path d="M12292 3237 c-7 -8 -7 -17 2 -30 18 -24 23 -22 28 13 5 32 -11 41
-30 17z"/>
<path d="M12360 3216 c0 -9 5 -16 10 -16 6 0 10 4 10 9 0 6 -4 13 -10 16 -5 3
-10 -1 -10 -9z"/>
<path d="M10307 2996 c-10 -27 -8 -94 3 -101 6 -3 10 0 11 7 0 7 2 26 4 41 2
16 0 38 -4 49 -7 19 -8 19 -14 4z"/>
<path d="M12318 2992 c-4 -12 -2 -20 2 -17 5 3 10 0 12 -6 2 -7 10 -10 17 -8
9 3 8 11 -7 28 l-19 24 -5 -21z"/>
<path d="M10500 2900 c7 -45 1 -50 -51 -50 -92 0 -177 -89 -101 -106 15 -3 38
-9 52 -13 24 -7 24 -7 -9 -24 -49 -24 -71 -22 -71 7 0 24 -16 36 -50 36 -10 0
-21 6 -23 13 -3 7 -6 5 -6 -5 -1 -10 4 -18 9 -18 6 0 10 -11 10 -25 0 -14 -4
-25 -10 -25 -5 0 -10 -9 -10 -20 0 -11 6 -20 13 -20 8 0 7 -4 -3 -10 -8 -5
-32 -10 -53 -10 -31 0 -39 -4 -47 -26 -6 -15 -24 -39 -40 -54 -17 -15 -30 -33
-30 -39 0 -6 -9 -11 -20 -11 -12 0 -24 -9 -29 -22 -6 -18 -3 -25 17 -35 13 -7
37 -13 53 -13 16 0 29 -4 29 -10 0 -5 -11 -10 -25 -10 -14 0 -25 -5 -25 -11 0
-6 -9 -9 -20 -6 -11 3 -22 1 -25 -3 -8 -13 6 -40 21 -40 20 0 29 -27 14 -45
-10 -12 -10 -15 1 -16 28 -3 45 4 85 31 24 16 68 32 107 40 37 7 69 15 72 19
2 4 -12 13 -31 20 -18 7 -34 17 -34 22 0 12 55 12 78 0 9 -5 46 -14 82 -21 36
-6 69 -15 74 -20 18 -18 -4 -60 -40 -75 -48 -20 -182 -20 -208 0 -23 17 -42 9
-25 -11 7 -8 9 -27 5 -46 -3 -18 -8 -48 -10 -66 -3 -18 -9 -38 -14 -45 -8 -9
4 -13 46 -14 31 -2 59 -8 63 -14 5 -8 8 -8 13 0 4 6 35 11 71 11 72 0 95 6 95
26 0 18 20 17 44 -1 22 -17 51 -5 61 24 8 25 47 34 79 19 31 -14 44 -4 29 22
-16 24 7 45 40 36 45 -11 77 -45 77 -82 0 -36 -15 -47 -23 -16 -4 16 -5 16 -6
-1 0 -10 6 -20 14 -23 8 -4 15 -14 15 -23 0 -9 13 -24 29 -34 22 -13 29 -23
26 -39 -5 -26 11 -48 36 -48 28 0 23 -18 -12 -39 l-30 -18 36 -38 c19 -21 32
-42 28 -45 -4 -4 -25 -10 -45 -13 -40 -6 -63 9 -52 36 8 23 -27 38 -80 33 -40
-4 -46 -2 -46 15 0 16 -7 19 -39 19 -22 0 -43 -4 -46 -10 -3 -5 -16 -10 -29
-10 -12 0 -27 -5 -34 -12 -7 -7 -12 -8 -12 -3 0 5 -7 0 -15 -11 -14 -18 -15
-18 -41 9 -22 24 -32 28 -57 23 -16 -3 -33 -6 -38 -6 -5 0 -9 -9 -9 -20 0 -11
-4 -20 -10 -20 -5 0 -9 3 -9 8 4 26 -3 42 -19 42 -11 0 -28 -8 -39 -17 -15
-14 -18 -25 -13 -50 9 -40 -4 -53 -52 -53 -31 0 -38 4 -38 19 0 10 7 24 15 31
49 41 -38 70 -104 35 -49 -25 -117 -36 -145 -24 -20 10 -30 8 -55 -10 -35 -25
-38 -36 -16 -57 8 -8 12 -20 9 -27 -8 -18 -100 -60 -118 -54 -26 10 -18 35 16
53 31 16 31 17 12 31 -10 8 -28 11 -39 8 -35 -10 -125 -13 -125 -4 0 5 -7 9
-15 9 -8 0 -15 -7 -15 -16 0 -11 -5 -14 -17 -9 -34 14 -48 10 -51 -12 -2 -13
-13 -29 -24 -37 -25 -18 -16 -36 18 -36 14 0 27 -7 31 -15 5 -14 8 -14 22 -2
9 7 28 18 43 24 23 10 27 9 32 -10 3 -12 6 -33 6 -47 0 -14 7 -33 15 -44 13
-16 19 -17 67 -6 29 7 61 16 71 21 23 12 83 1 98 -17 18 -22 2 -29 -34 -17
-17 7 -48 11 -67 10 -30 -2 -35 -6 -38 -31 -3 -26 -2 -28 26 -22 35 8 82 -8
82 -28 0 -23 38 -30 65 -12 13 9 33 16 44 16 10 0 21 7 25 15 3 8 16 15 28 15
21 0 23 -4 20 -44 -4 -40 -6 -44 -22 -34 -25 16 -80 -7 -80 -33 0 -15 8 -19
38 -20 72 -3 85 -7 103 -30 10 -13 14 -25 9 -27 -6 -2 -10 -11 -10 -19 0 -11
5 -13 18 -8 9 4 41 10 70 13 29 2 55 8 58 13 9 15 34 10 34 -6 0 -11 -11 -15
-40 -15 -22 0 -40 -4 -40 -9 0 -5 -16 -15 -35 -21 -42 -14 -45 -27 -8 -32 19
-2 29 -10 33 -28 5 -20 14 -26 49 -32 24 -4 46 -10 50 -13 8 -8 -21 -56 -39
-65 -8 -4 -34 -17 -58 -30 l-43 -22 -17 21 c-10 12 -36 23 -65 27 -46 6 -48 6
-46 -17 5 -52 1 -56 -52 -63 -38 -5 -57 -3 -75 9 -25 16 -104 21 -104 6 0 -14
-41 -24 -52 -13 -6 6 -4 14 5 24 8 7 18 24 21 36 5 14 15 22 30 22 13 0 37 7
54 16 31 15 85 14 141 -2 21 -6 23 -5 16 17 -4 13 -11 26 -14 29 -33 25 -66
109 -43 111 4 0 26 2 50 4 36 3 42 1 42 -16 0 -16 7 -19 40 -19 43 0 48 6 27
34 -9 12 -29 20 -53 22 -55 3 -107 15 -121 26 -7 6 -12 28 -11 49 1 22 -1 41
-4 44 -3 3 -26 -2 -51 -12 -42 -16 -47 -16 -64 -1 -10 9 -31 18 -48 20 -20 2
-29 8 -28 18 2 11 -6 15 -30 15 -29 0 -32 3 -35 33 -3 33 -18 43 -28 17 -4 -8
-14 -15 -23 -16 -12 0 -12 -2 4 -9 18 -8 17 -9 -7 -9 -16 -1 -28 -6 -28 -12 0
-7 -12 -22 -26 -34 -24 -20 -24 -23 -9 -38 9 -10 26 -17 38 -17 12 0 32 -3 45
-6 16 -5 22 -3 20 6 -2 8 12 18 30 23 40 12 55 -3 42 -39 -12 -31 -4 -34 55
-19 l50 12 36 -37 c19 -20 43 -42 53 -47 18 -10 18 -11 0 -44 -27 -49 -39 -59
-76 -66 -45 -8 -65 -20 -106 -60 -28 -28 -41 -34 -67 -31 -37 4 -57 -11 -44
-34 6 -11 2 -21 -11 -33 -17 -15 -26 -17 -55 -8 -43 13 -115 5 -115 -12 0 -15
-131 -14 -182 0 -17 4 -28 3 -28 -2 0 -6 -21 -10 -47 -11 -82 0 -123 -12 -129
-36 -3 -13 -21 -28 -49 -39 -41 -17 -46 -17 -61 -3 -14 15 -18 13 -49 -19 -36
-37 -83 -55 -94 -37 -8 14 -51 4 -51 -12 0 -6 7 -22 16 -34 15 -22 14 -23 -26
-41 -30 -13 -37 -21 -28 -28 17 -13 69 -26 66 -16 -3 8 5 13 23 13 5 0 8 -4 4
-9 -3 -5 4 -12 15 -16 11 -3 20 -11 20 -16 0 -5 18 -9 40 -9 22 0 40 -4 40
-10 0 -5 16 -10 35 -10 37 0 43 8 23 28 -9 9 -8 12 5 12 9 0 17 -4 17 -9 0 -4
11 -6 24 -4 29 6 86 -45 65 -57 -6 -4 -9 -16 -7 -26 2 -14 12 -19 33 -19 17 0
36 -4 43 -9 15 -9 41 19 42 47 0 13 9 17 39 17 31 0 41 4 46 20 5 16 15 20 46
20 24 0 39 5 39 13 0 9 2 9 8 1 4 -7 18 -14 32 -15 17 -3 26 -11 28 -28 2 -13
12 -26 23 -28 10 -3 19 -9 19 -14 0 -5 9 -5 20 1 11 5 29 14 40 20 11 5 29 10
40 10 11 0 20 5 20 10 0 18 52 10 71 -11 11 -12 27 -19 41 -17 19 2 22 8 20
31 -3 24 0 27 28 27 33 0 53 -26 30 -40 -7 -4 -10 -15 -7 -24 8 -20 65 -21 93
-2 11 8 31 16 44 18 20 2 24 8 22 29 -1 18 4 29 20 37 33 15 118 25 118 13 0
-5 12 -11 27 -13 18 -2 29 -10 32 -23 2 -11 12 -26 23 -34 19 -13 19 -14 -14
-48 -32 -35 -32 -35 -8 -31 14 3 33 9 43 13 13 5 17 2 17 -13 0 -11 -8 -22
-20 -25 -11 -3 -20 -12 -20 -21 0 -9 -8 -16 -20 -16 -28 0 -26 -36 2 -43 18
-5 19 -8 8 -21 -7 -9 -25 -16 -41 -16 -18 0 -32 -7 -39 -20 -8 -14 -21 -20
-46 -20 -42 0 -64 19 -64 54 0 24 3 26 50 26 36 0 52 -5 59 -17 7 -14 11 -9
21 26 11 43 6 67 -9 42 -13 -20 -23 16 -11 39 14 27 12 34 -5 20 -8 -7 -28
-10 -44 -8 -21 3 -28 1 -24 -9 3 -7 9 -13 14 -13 5 0 9 -9 9 -20 0 -17 -7 -20
-40 -20 -33 0 -40 3 -40 20 0 13 -7 20 -19 20 -11 0 -23 5 -26 10 -14 22 -35
10 -35 -20 0 -30 -21 -42 -35 -20 -5 8 -11 8 -19 0 -14 -11 -10 -57 6 -77 6
-7 8 -20 4 -28 -4 -12 -11 -13 -33 -4 -42 16 -57 -14 -58 -117 -1 -67 1 -84
13 -84 9 0 12 -6 7 -17 -13 -35 -9 -38 59 -41 44 -2 74 -8 83 -18 13 -13 10
-19 -26 -54 -23 -22 -48 -40 -56 -40 -8 0 -31 -11 -51 -25 l-37 -25 182 0 183
0 -4 70 c-2 52 0 71 11 75 10 4 12 17 7 48 -5 30 -2 48 8 62 9 11 16 29 16 40
0 16 2 17 9 6 5 -8 16 -11 26 -7 13 5 16 14 11 39 -5 29 -3 35 19 45 21 10 27
9 31 -3 9 -22 24 -18 24 5 0 11 -4 20 -10 20 -16 0 -12 57 5 64 10 4 15 19 15
49 0 24 4 47 9 53 5 5 11 17 13 28 4 22 68 33 68 11 0 -18 32 -43 37 -29 2 6
17 26 33 44 17 19 30 37 30 42 0 5 9 18 19 30 11 11 25 43 31 70 5 28 16 58
24 69 13 19 13 19 31 -1 10 -11 26 -20 37 -20 10 0 18 -7 18 -15 0 -9 9 -15
22 -15 17 0 19 3 10 12 -17 17 -15 28 7 28 10 0 24 6 31 14 6 8 21 16 33 18
17 2 21 9 19 26 -3 17 2 25 17 29 12 3 21 11 21 18 0 7 7 15 15 19 8 3 12 12
9 20 -7 18 15 31 29 17 6 -6 24 -11 39 -11 33 0 38 -24 8 -42 -27 -17 -25 -25
5 -30 24 -5 27 -2 29 31 1 8 7 16 14 19 11 3 16 -12 15 -45 -1 -7 3 -13 8 -13
5 0 9 4 9 8 0 5 9 18 20 30 16 17 32 22 69 22 34 0 53 5 65 19 26 28 116 9
116 -26 0 -11 6 -14 24 -9 15 4 37 -1 55 -12 26 -14 31 -23 29 -47 -3 -27 0
-30 27 -33 52 -6 135 -33 137 -45 0 -7 2 -35 3 -63 1 -28 8 -61 15 -73 6 -13
9 -33 6 -46 -5 -19 0 -27 24 -41 16 -10 31 -25 33 -33 3 -10 5 -8 6 6 2 45 51
40 76 -8 10 -18 23 -29 36 -29 11 0 18 -4 14 -9 -3 -5 -1 -12 3 -15 9 -5 8
-24 -4 -101 -7 -43 -23 -59 -64 -64 -19 -2 -10 -21 10 -21 16 0 20 -7 20 -31
0 -27 3 -30 23 -23 32 10 32 9 29 93 l-3 77 48 15 48 14 3 70 c3 62 0 72 -19
88 -20 16 -23 16 -59 -4 -20 -12 -45 -19 -56 -17 -15 3 -13 9 19 41 21 20 35
42 32 47 -3 5 5 16 19 25 25 17 50 70 40 86 -3 5 -18 9 -33 9 -16 0 -34 7 -41
15 -7 8 -20 15 -29 15 -27 0 -70 121 -52 148 11 19 67 -12 114 -62 33 -35 62
-42 52 -13 -2 7 -6 32 -9 57 -2 25 -5 47 -5 50 -1 3 -6 -2 -11 -10 -8 -13 -10
-13 -10 2 0 9 5 18 12 20 24 8 -2 36 -39 43 -37 6 -67 22 -150 77 -52 34 -66
100 -31 145 6 7 2 13 -11 18 -12 3 -24 18 -27 33 -3 15 -10 40 -14 55 -9 29
-4 57 11 57 18 0 115 -22 134 -30 30 -13 94 -22 105 -15 19 12 -18 35 -65 42
-63 8 -97 36 -88 71 3 15 12 31 20 35 7 4 13 19 13 32 0 24 9 29 48 28 7 -1
15 10 18 23 4 13 13 28 21 32 11 6 -3 17 -52 40 -36 18 -72 32 -80 32 -8 0
-17 5 -20 10 -3 6 -15 10 -26 10 -15 0 -18 -5 -13 -24 4 -19 1 -24 -20 -28
-32 -6 -43 1 -51 34 -7 26 -10 27 -54 23 -25 -2 -61 -7 -78 -11 -32 -6 -33 -6
-33 30 0 39 21 50 38 20 8 -14 10 -13 15 5 3 11 1 21 -4 21 -5 0 -9 14 -9 30
0 25 -4 30 -24 30 -30 0 -39 22 -21 47 22 28 19 84 -4 90 -28 7 -49 109 -26
126 6 4 0 10 -15 14 -24 6 -23 7 10 19 19 7 52 13 73 13 20 1 37 6 37 12 0 7
14 8 43 4 23 -4 39 -4 34 1 -8 8 19 55 40 67 20 12 15 34 -9 41 -40 10 -68 7
-68 -9 0 -8 -6 -15 -12 -15 -9 0 -9 -3 1 -9 12 -8 12 -12 -2 -25 -20 -20 -38
-21 -31 -1 5 12 -2 15 -30 15 -20 0 -36 4 -36 8 0 4 -13 12 -29 18 -23 9 -35
8 -66 -7 -20 -10 -43 -23 -50 -29 -14 -12 -92 -3 -112 12 -18 14 8 38 41 38
13 0 31 6 38 14 19 19 74 30 83 17 7 -13 45 -15 45 -3 0 5 11 15 25 22 18 9
23 19 19 32 -7 22 24 25 32 3 4 -8 14 -15 23 -15 14 1 14 2 -1 11 -10 5 -18
19 -18 29 0 11 -3 20 -7 21 -5 1 -30 3 -58 5 -50 5 -65 15 -65 47 0 12 8 17
29 17 22 0 29 4 26 18 -1 9 -7 16 -11 15 -77 -14 -79 -14 -120 13 -33 21 -40
31 -36 50 6 33 -10 49 -71 69 l-52 17 -27 -33 c-23 -27 -28 -43 -28 -86 0 -29
-4 -53 -10 -53 -15 0 -23 46 -16 86 9 44 -6 64 -48 64 -17 0 -40 7 -50 15 -11
8 -34 15 -50 16 -17 0 -25 3 -18 6 21 8 13 39 -23 79 -31 35 -36 37 -45 22
-15 -25 -64 -23 -81 3 -8 11 -23 21 -34 23 -11 2 -19 10 -17 18 1 8 -10 25
-24 39 -18 16 -25 19 -24 9z m-16 -95 c-6 -16 -24 -21 -24 -7 0 11 11 22 21
22 5 0 6 -7 3 -15z m116 -126 c0 -5 11 -9 25 -9 41 0 30 -42 -14 -53 -29 -7
-51 8 -51 33 0 10 -6 21 -12 23 -10 4 -10 8 1 15 15 11 51 4 51 -9z m26 -145
c-3 -22 -22 -31 -56 -26 -34 5 -35 7 -17 27 17 20 76 20 73 -1z m293 -213 c24
-15 4 -51 -30 -51 -24 0 -29 4 -29 23 0 13 3 27 7 30 9 10 35 8 52 -2z m-492
-137 c9 -24 -24 -44 -66 -43 -24 1 -28 3 -13 6 12 2 22 8 22 13 0 12 29 40 41
40 5 0 12 -7 16 -16z m513 -29 c11 -13 7 -15 -24 -15 -32 0 -35 2 -24 15 17
19 32 19 48 0z m-276 -343 c6 -11 -21 -52 -35 -52 -10 0 -13 43 -2 53 9 10 31
9 37 -1z m323 -30 c8 -5 9 -24 4 -62 -6 -47 -9 -55 -26 -52 -11 2 -46 4 -77 4
-59 0 -67 5 -47 25 9 9 5 14 -16 19 -20 5 -23 9 -13 15 10 7 10 9 -2 9 -30 0
46 32 95 40 70 11 69 11 82 2z m-599 -11 c10 -6 5 -11 -19 -20 -42 -14 -49
-14 -49 3 0 13 16 22 45 25 6 0 16 -3 23 -8z m87 -32 c0 -7 -8 -15 -17 -17
-18 -3 -25 18 -11 32 10 10 28 1 28 -15z m-332 -7 c15 -6 13 -10 -13 -25 -16
-10 -30 -22 -30 -28 0 -17 -78 -10 -89 8 -20 36 74 67 132 45z m-201 -19 c23
-21 23 -33 -1 -33 -17 0 -31 18 -31 41 0 14 11 11 32 -8z m-62 -33 c0 -15 -7
-20 -25 -20 -28 0 -25 26 3 33 10 3 18 5 20 6 1 0 2 -8 2 -19z m380 -24 c0
-15 -24 -29 -33 -19 -7 6 14 32 26 33 4 0 7 -6 7 -14z m850 -1 c-7 -8 -17 -15
-22 -15 -6 0 -5 7 2 15 7 8 17 15 22 15 6 0 5 -7 -2 -15z m-54 -41 c-4 -15 -2
-24 5 -24 7 0 9 -9 5 -25 -5 -18 -2 -27 9 -31 22 -9 19 -23 -10 -46 -14 -11
-23 -23 -21 -27 3 -4 -9 -6 -27 -4 -30 4 -31 3 -13 -11 19 -15 18 -16 -17 -31
-41 -17 -60 -20 -37 -5 12 8 12 10 1 10 -11 0 -11 3 -1 14 9 12 6 16 -23 21
-20 4 -44 2 -56 -5 -18 -9 -30 -7 -67 10 -24 12 -44 26 -44 31 0 5 -10 9 -22
10 l-23 0 23 9 c12 5 22 14 22 19 0 5 10 12 23 14 20 4 19 4 -4 6 -32 1 -47
29 -22 38 18 7 43 7 138 2 62 -4 85 6 97 42 5 11 15 15 38 11 27 -4 31 -8 26
-28z m-966 7 c-25 -15 -103 -17 -108 -3 -3 9 14 12 60 12 41 -1 58 -4 48 -9z
m-30 -61 c0 -5 -4 -10 -9 -10 -6 0 -13 5 -16 10 -3 6 1 10 9 10 9 0 16 -4 16
-10z m1210 -5 c-7 -8 -21 -15 -31 -15 -12 0 -16 5 -13 15 4 8 17 15 31 15 22
0 24 -2 13 -15z m-950 -21 c6 -15 7 -32 1 -41 -7 -14 -10 -13 -20 5 -6 12 -17
19 -25 16 -14 -6 -30 22 -20 37 3 5 16 9 30 9 17 0 27 -8 34 -26z m375 -4 c3
-5 -1 -10 -10 -10 -9 0 -13 5 -10 10 3 6 8 10 10 10 2 0 7 -4 10 -10z m422
-81 c-6 -23 16 -37 36 -21 6 5 26 12 42 15 17 3 42 9 58 13 22 5 27 3 27 -11
0 -21 -28 -44 -52 -45 -9 0 -23 -9 -31 -20 -20 -29 -94 -18 -109 16 -6 13 -19
24 -30 24 -22 0 -23 5 0 29 9 11 28 20 41 20 19 1 22 -3 18 -20z m-527 -24 c0
-8 -6 -15 -14 -15 -20 0 -29 17 -14 23 22 9 28 7 28 -8z m185 5 c3 -5 1 -10
-4 -10 -6 0 -11 -9 -11 -20 0 -22 -16 -25 -57 -9 l-28 11 24 19 c25 20 66 25
76 9z m-248 -6 c-3 -3 -12 -4 -19 -1 -8 3 -5 6 6 6 11 1 17 -2 13 -5z m500
-20 c-3 -3 -12 -4 -19 -1 -8 3 -5 6 6 6 11 1 17 -2 13 -5z m-607 -38 c0 -13 8
-27 18 -31 15 -7 13 -9 -8 -15 -26 -7 -70 13 -70 33 0 12 31 36 48 37 6 0 12
-11 12 -24z m565 -35 c8 -14 -13 -24 -33 -16 -14 5 -14 7 -2 15 19 12 27 12
35 1z m405 -1 c0 -5 -5 -10 -11 -10 -5 0 -7 5 -4 10 3 6 8 10 11 10 2 0 4 -4
4 -10z m-960 -84 c0 -2 -7 -6 -15 -10 -8 -3 -15 -1 -15 4 0 6 7 10 15 10 8 0
15 -2 15 -4z m973 -35 c15 -15 -2 -31 -34 -31 -21 0 -29 5 -29 18 0 10 3 21 6
25 8 7 45 0 57 -12z m-345 -68 c13 -16 21 -39 20 -53 -3 -22 -8 -25 -38 -24
-66 2 -89 8 -93 26 -3 9 -1 18 4 20 4 2 9 18 11 36 2 33 4 34 38 28 22 -3 44
-16 58 -33z m-581 -68 c-6 -16 -72 -18 -86 -1 -10 12 -7 15 18 21 17 4 34 11
37 17 8 13 36 -21 31 -37z m438 15 c-10 -11 -22 -20 -26 -20 -4 0 -7 9 -6 20
1 14 8 20 26 20 23 0 24 -1 6 -20z m-794 -25 c0 -13 -41 -19 -41 -7 0 11 20
22 33 18 5 -1 8 -6 8 -11z m1253 -59 c-3 -8 -15 -11 -30 -8 -30 5 -30 10 -1
21 26 10 38 5 31 -13z m-220 -7 c-3 -5 -12 -9 -20 -9 -8 0 -14 -4 -14 -10 0
-5 -4 -10 -9 -10 -13 0 -20 39 -8 43 19 6 57 -5 51 -14z m-754 -24 c0 -8 6
-15 13 -15 6 -1 -4 -9 -23 -19 -19 -11 -38 -17 -42 -14 -16 9 -7 40 15 51 31
15 37 14 37 -3z m-1040 -5 c0 -5 7 -10 15 -10 22 0 18 -18 -5 -25 -40 -13 -85
23 -47 38 21 9 37 7 37 -3z m-230 -25 c0 -2 -7 -5 -15 -9 -9 -3 -15 0 -15 9 0
9 6 12 15 9 8 -4 15 -7 15 -9z m900 -15 c0 -5 -7 -10 -15 -10 -8 0 -15 5 -15
10 0 6 7 10 15 10 8 0 15 -4 15 -10z m-835 -50 c0 -7 -6 -15 -12 -17 -8 -3
-13 4 -13 17 0 13 5 20 13 18 6 -3 12 -11 12 -18z m1125 -25 c0 -18 5 -19 29
-3 33 20 51 3 51 -47 0 -32 5 -47 15 -52 26 -9 14 -64 -20 -95 -16 -16 -32
-28 -36 -28 -14 0 -69 22 -70 28 0 4 -2 30 -3 57 -2 55 11 78 37 64 10 -6 18
-5 22 1 3 5 -1 10 -9 10 -9 0 -16 9 -16 20 0 25 -8 25 -29 1 -21 -25 -54 -31
-58 -11 -5 23 38 70 64 70 14 0 23 -6 23 -15z m-1260 -9 c0 0 -7 -19 -16 -41
-8 -22 -17 -48 -21 -57 -6 -20 -38 -24 -49 -7 -5 8 -9 8 -14 -1 -5 -8 -15 -4
-35 14 -15 14 -37 26 -47 26 -13 0 -18 6 -16 18 2 9 10 16 16 14 7 -1 15 5 18
13 4 9 19 15 35 15 26 0 29 -4 29 -31 0 -18 4 -28 10 -24 6 4 8 10 5 15 -3 5
4 11 15 15 11 3 25 15 30 25 6 11 17 17 25 14 8 -4 15 -7 15 -8z m467 -23 c6
-17 -34 -35 -59 -27 -21 6 -21 6 3 25 26 20 50 21 56 2z m466 10 c9 -9 -33
-53 -50 -53 -19 0 -43 25 -43 44 0 12 11 16 43 16 24 0 47 -3 50 -7z m-689
-49 c23 -9 20 -24 -4 -24 -11 0 -20 7 -20 15 0 17 2 18 24 9z m301 -4 c-3 -5
-11 -10 -16 -10 -6 0 -7 5 -4 10 3 6 11 10 16 10 6 0 7 -4 4 -10z m-445 -13
c0 -19 -10 -27 -26 -20 -21 8 -17 33 6 33 11 0 20 -6 20 -13z m745 -37 c3 -5
-1 -10 -9 -10 -9 0 -16 5 -16 10 0 6 4 10 9 10 6 0 13 -4 16 -10z m-660 -30
c0 -22 -5 -25 -39 -28 -21 -2 -43 1 -48 6 -15 15 2 41 30 45 47 7 57 3 57 -23z
m2355 -15 c0 -8 -7 -15 -15 -15 -8 0 -15 7 -15 15 0 8 7 15 15 15 8 0 15 -7
15 -15z m7 -57 c-3 -8 -6 -5 -6 6 -1 11 2 17 5 13 3 -3 4 -12 1 -19z m-2430
-4 c-3 -3 -12 -4 -19 -1 -8 3 -5 6 6 6 11 1 17 -2 13 -5z m841 -336 c8 -8 15
-8 25 0 16 14 28 6 20 -14 -3 -8 -14 -14 -25 -14 -18 0 -18 -2 -4 -22 9 -12
16 -31 16 -41 0 -9 7 -20 15 -23 8 -4 15 -15 15 -25 0 -23 -24 -21 -59 3 -14
10 -52 20 -85 24 l-60 7 32 27 c24 19 31 32 26 45 -13 34 56 61 84 33z"/>
<path d="M11020 1585 c0 -8 5 -15 10 -15 6 0 10 7 10 15 0 8 -4 15 -10 15 -5
0 -10 -7 -10 -15z"/>
<path d="M12346 2748 c-9 -12 -16 -26 -16 -30 0 -12 31 -38 46 -38 17 0 19 31
2 48 -8 8 -8 15 2 27 10 12 10 15 -3 15 -9 0 -23 -10 -31 -22z"/>
<path d="M12280 2705 c0 -8 5 -15 10 -15 6 0 10 7 10 15 0 8 -4 15 -10 15 -5
0 -10 -7 -10 -15z"/>
<path d="M13096 2663 c-13 -13 -5 -43 13 -53 28 -14 31 -13 31 15 0 24 -31 51
-44 38z"/>
<path d="M11300 2485 c0 -8 7 -15 15 -15 8 0 15 7 15 15 0 8 -7 15 -15 15 -8
0 -15 -7 -15 -15z"/>
<path d="M12277 2448 c-12 -29 -11 -37 3 -63 10 -17 25 -30 36 -30 21 0 27 29
7 31 -7 1 -16 2 -20 3 -3 0 2 10 11 20 17 18 17 21 1 45 -10 14 -19 26 -21 26
-2 0 -10 -15 -17 -32z"/>
<path d="M12240 2324 c0 -8 5 -12 10 -9 6 3 10 10 10 16 0 5 -4 9 -10 9 -5 0
-10 -7 -10 -16z"/>
<path d="M12200 2270 c0 -11 5 -20 10 -20 6 0 10 7 10 16 0 8 5 12 10 9 6 -3
10 -1 10 4 0 6 -9 11 -20 11 -13 0 -20 -7 -20 -20z"/>
<path d="M10095 2170 c-20 -13 -23 -19 -13 -27 23 -18 75 -23 87 -9 30 36 -30
65 -74 36z"/>
<path d="M10735 2180 c3 -5 12 -10 20 -10 8 0 17 5 20 10 4 6 -5 10 -20 10
-15 0 -24 -4 -20 -10z"/>
<path d="M9978 2103 c7 -3 16 -2 19 1 4 3 -2 6 -13 5 -11 0 -14 -3 -6 -6z"/>
<path d="M9250 1770 c0 -5 7 -10 16 -10 8 0 12 5 9 10 -3 6 -10 10 -16 10 -5
0 -9 -4 -9 -10z"/>
<path d="M11520 1770 c0 -5 5 -10 11 -10 5 0 7 5 4 10 -3 6 -8 10 -11 10 -2 0
-4 -4 -4 -10z"/>
<path d="M9362 1732 c-37 -11 -6 -38 52 -46 41 -5 47 -4 42 10 -3 9 -6 17 -6
20 0 2 -6 1 -14 -2 -7 -3 -20 2 -29 10 -9 9 -17 16 -19 15 -2 -1 -13 -4 -26
-7z"/>
<path d="M9593 1646 c-4 -7 -15 -16 -23 -19 -8 -3 6 -6 33 -6 36 -1 47 3 47
14 0 12 -7 14 -26 9 -19 -5 -25 -4 -20 5 4 6 5 11 2 11 -3 0 -9 -6 -13 -14z"/>
<path d="M9473 1593 c-21 -8 -15 -33 7 -33 13 0 20 7 20 20 0 20 -5 23 -27 13z"/>
<path d="M9497 1453 c5 -14 41 -28 50 -19 13 12 -8 36 -31 34 -14 -1 -22 -7
-19 -15z"/>
<path d="M9390 1392 c-14 -9 -34 -25 -44 -34 -18 -17 -31 -22 -48 -20 -3 1 -8
-5 -11 -12 -7 -18 48 -72 57 -57 4 6 16 11 26 11 10 0 35 9 54 21 39 23 47 58
22 92 -16 21 -24 21 -56 -1z m30 -21 c0 -12 -20 -25 -27 -18 -7 7 6 27 18 27
5 0 9 -4 9 -9z"/>
<path d="M9483 1083 c15 -2 37 -2 50 0 12 2 0 4 -28 4 -27 0 -38 -2 -22 -4z"/>
<path d="M9346 1041 c-4 -7 -5 -15 -2 -18 9 -9 19 4 14 18 -4 11 -6 11 -12 0z"/>
<path d="M11965 1038 c-44 -16 -56 -27 -46 -47 5 -9 6 -31 4 -48 -4 -25 -2
-33 10 -33 9 0 22 7 29 15 7 9 23 27 35 40 19 20 21 28 13 50 -9 24 -8 26 10
20 11 -4 20 -2 20 4 0 14 -35 13 -75 -1z"/>
<path d="M11924 773 c3 -27 8 -68 10 -93 2 -25 4 -53 5 -63 0 -10 5 -16 10
-12 5 3 7 30 4 60 -5 51 -4 55 15 55 11 0 24 -4 27 -10 7 -12 55 -14 55 -2 0
16 -98 112 -115 112 -15 0 -16 -7 -11 -47z"/>
<path d="M8640 730 c0 -5 -12 -10 -26 -10 -16 0 -24 -5 -21 -12 2 -9 18 -12
43 -9 38 3 58 17 48 33 -7 12 -44 10 -44 -2z"/>
<path d="M8740 660 c0 -5 7 -10 15 -10 8 0 15 5 15 10 0 6 -7 10 -15 10 -8 0
-15 -4 -15 -10z"/>
<path d="M11504 579 c-3 -6 -1 -16 5 -22 8 -8 11 -5 11 11 0 24 -5 28 -16 11z"/>
<path d="M10370 547 c0 -17 5 -27 15 -27 19 0 19 9 0 34 -14 19 -15 19 -15 -7z"/>
<path d="M9477 489 c7 -7 15 -10 18 -7 3 3 -2 9 -12 12 -14 6 -15 5 -6 -5z"/>
<path d="M11470 490 c0 -5 7 -10 15 -10 8 0 15 5 15 10 0 6 -7 10 -15 10 -8 0
-15 -4 -15 -10z"/>
<path d="M11680 480 c0 -13 7 -20 18 -20 26 0 34 11 21 27 -17 20 -39 16 -39
-7z"/>
<path d="M14324 485 c-18 -14 -18 -14 4 -8 12 3 22 9 22 14 0 12 -3 11 -26 -6z"/>
<path d="M9385 453 c-11 -3 -28 -12 -37 -20 -24 -22 -6 -57 25 -50 12 3 38 10
57 15 l35 8 -30 15 c-16 9 -29 21 -27 27 1 7 1 11 0 11 -2 -1 -12 -4 -23 -6z"/>
<path d="M9245 430 c-3 -6 1 -7 9 -4 18 7 21 14 7 14 -6 0 -13 -4 -16 -10z"/>
<path d="M9130 400 c5 -9 25 -21 45 -27 33 -11 37 -10 44 10 5 12 7 23 6 25
-2 2 -26 4 -53 6 -44 2 -49 0 -42 -14z"/>
<path d="M11646 374 c-5 -14 -4 -15 9 -4 17 14 19 20 6 20 -5 0 -12 -7 -15
-16z"/>
<path d="M8845 371 c-2 -5 6 -11 20 -13 15 -3 25 -1 25 6 0 14 -37 19 -45 7z"/>
<path d="M14313 364 c-18 -7 -40 -26 -50 -41 -10 -16 -20 -30 -23 -33 -3 -3
-7 -18 -9 -35 -1 -16 -7 -38 -12 -47 -5 -9 -9 -34 -9 -56 0 -24 -5 -42 -14
-45 -7 -3 -16 -20 -20 -39 -3 -18 -16 -41 -29 -50 -21 -17 -18 -18 100 -18
l123 0 -4 153 c-2 83 -4 169 -5 190 -1 41 -2 41 -48 21z m31 -189 c4 -10 -1
-15 -14 -15 -11 0 -20 7 -20 15 0 8 6 15 14 15 8 0 16 -7 20 -15z"/>
<path d="M10252 331 c2 -7 7 -12 11 -12 12 1 9 15 -3 20 -7 2 -11 -2 -8 -8z"/>
<path d="M9660 244 c0 -7 9 -16 21 -19 23 -8 45 7 35 23 -9 14 -56 11 -56 -4z"/>
<path d="M9616 165 c-9 -7 -16 -16 -16 -22 0 -5 -18 -17 -40 -27 -22 -10 -40
-23 -40 -29 0 -7 -15 -21 -34 -31 -32 -17 -36 -17 -50 -3 -9 9 -16 20 -16 25
0 5 -8 12 -17 16 -10 3 -24 9 -30 12 -8 3 -13 -2 -13 -14 0 -25 -18 -32 -80
-32 -64 0 -80 -7 -80 -36 l0 -24 254 0 255 1 -17 29 c-18 32 -13 43 21 45 16
1 23 9 25 31 2 16 9 35 14 42 6 7 8 16 4 19 -12 12 -122 10 -140 -2z"/>
<path d="M11650 116 c0 -13 5 -16 16 -12 13 5 14 3 7 -6 -7 -9 -6 -24 3 -48 8
-19 12 -25 10 -12 -2 12 0 20 5 16 5 -3 9 -12 9 -21 0 -29 37 30 43 68 l5 37
-49 -2 c-41 -1 -49 -4 -49 -20z"/>
</g>
</svg>
